<svg viewBox="0 0 46 42" fill="none" xmlns="http://www.w3.org/2000/svg">
<path d="M43.4124 25.0916C43.4124 25.9185 43.0758 26.6664 42.5315 27.2077C41.9863 27.7491 41.2344 28.0839 40.404 28.0839H5.59592C3.93507 28.0839 2.5875 26.7446 2.5875 25.0916C2.5875 24.6489 2.68381 24.2294 2.85685 23.8517C3.00743 23.5234 3.21506 23.2276 3.46842 22.9756C4.01359 22.4342 4.76549 22.0994 5.59592 22.0994H40.4041C41.6207 22.0994 42.669 22.8174 43.1431 23.8517C43.3161 24.2294 43.4124 24.6489 43.4124 25.0916Z" fill="#884D00"/>
<path d="M43.1431 23.8518C42.9926 24.1792 42.784 24.4759 42.5316 24.7271C41.9864 25.2684 41.2345 25.6033 40.4041 25.6033H5.59592C4.38024 25.6033 3.33195 24.8852 2.85685 23.8519C3.00743 23.5236 3.21497 23.2278 3.46842 22.9757C4.01359 22.4343 4.76549 22.0995 5.59592 22.0995H40.4041C41.6207 22.0994 42.669 22.8175 43.1431 23.8518Z" fill="#AA6100"/>
<path d="M46 30.4994C46 34.3548 44.2055 37.2195 41.3046 39.1198C38.4028 41.021 34.3948 41.9577 29.9677 41.9577H16.0322C7.17825 41.9577 0 38.2102 0 30.4994C0 30.0696 0.107543 29.6622 0.302055 29.2957C0.466648 28.9833 0.693863 28.7014 0.969773 28.4614C1.56831 27.9396 2.39685 27.6168 3.31047 27.6168H42.6896C44.0241 27.6168 45.1743 28.3051 45.698 29.2957C45.8925 29.6623 46 30.0697 46 30.4994Z" fill="#FFA733"/>
<path d="M45.6979 29.2959C45.0733 31.8631 43.5078 33.8628 41.3046 35.3063C38.4028 37.2075 34.3948 38.1442 29.9677 38.1442H16.0322C8.24236 38.1442 1.75061 35.2441 0.302055 29.2959C0.466649 28.9834 0.693864 28.7015 0.969774 28.4615C1.56831 27.9397 2.39685 27.6169 3.31047 27.6169H42.6896C44.0241 27.6169 45.1742 28.3053 45.6979 29.2959Z" fill="#FFB655"/>
<path d="M35.7926 20.8438L28.0102 28.5844C27.8148 28.7778 27.6062 28.9489 27.3855 29.0968C25.7378 30.2064 23.4804 30.0363 22.0206 28.5844L14.2383 20.8438H35.7926Z" fill="#EEBF00"/>
<path d="M35.7926 20.8438L28.0102 28.5844C27.8148 28.7778 27.6062 28.9489 27.3855 29.0968C26.7918 28.896 26.2344 28.5601 25.7612 28.0886L18.4773 20.8438H35.7926Z" fill="#FFD422"/>
<path d="M45.1265 21.9236C45.1265 22.3291 45.0592 22.7439 44.9133 23.1486C44.3419 24.7345 42.8121 25.3502 41.6198 24.474L40.1899 23.4239C39.1921 22.69 37.9194 22.9905 37.1974 24.1308L37.1366 24.2266C36.4436 25.3223 35.2354 25.6478 34.2488 25.006L31.0469 22.9234C30.3081 22.4435 29.4225 22.4956 28.723 23.062L26.157 25.1381C25.4201 25.7343 24.4813 25.7594 23.7247 25.2023L20.7977 23.0444C20.0495 22.4928 19.1219 22.5104 18.3878 23.0908L15.7227 25.1958C15.0072 25.7604 14.1076 25.7929 13.3679 25.2823L9.91722 22.8974C9.23827 22.4287 8.42007 22.4156 7.73177 22.863L4.51303 24.9568C2.36963 25.2312 1.32699 23.6658 1.32699 23.6658C0.813625 22.7784 0.762145 21.7264 1.03994 20.8437C1.37003 19.789 2.16964 18.9761 3.20949 18.9761H42.7916C43.8109 18.9761 44.6254 19.7769 44.9602 20.8391C45.0686 21.1795 45.1265 21.5469 45.1265 21.9236Z" fill="#6DC82A"/>
<path d="M44.9601 20.8391C44.9461 20.8856 44.9302 20.9312 44.9134 20.9777C44.342 22.5645 42.8122 23.1803 41.6198 22.3041L40.19 21.2531C39.1922 20.5201 37.9195 20.8206 37.1975 21.96L37.1366 22.0567C36.4437 23.1524 35.2355 23.4779 34.2489 22.8361L31.0469 20.7535C30.3082 20.2727 29.4226 20.3257 28.7231 20.8921L26.1571 22.9682C25.4202 23.5644 24.4813 23.5886 23.7248 23.0315L20.7978 20.8735C20.0496 20.322 19.122 20.3406 18.3879 20.92L15.7227 23.0258C15.0072 23.5895 14.1076 23.6229 13.3679 23.1123L9.91722 20.7274C9.23827 20.2578 8.42007 20.2447 7.73177 20.693L4.51303 22.7858C2.36963 23.0611 1.32699 21.4948 1.32699 21.4948C1.20633 21.2855 1.11101 21.0669 1.03994 20.8437C1.37003 19.789 2.16964 18.976 3.20949 18.976H42.7916C43.8108 18.976 44.6253 19.7769 44.9601 20.8391Z" fill="#7ED63E"/>
<path d="M44.3279 17.0618C44.3345 17.3716 44.2933 17.6701 44.2129 17.952C43.851 19.2058 42.6895 20.1229 41.313 20.1229C35.9079 20.1229 21.5112 20.002 19.3399 20.0736C19.2913 20.0755 19.2426 20.0773 19.1949 20.0782C16.4531 20.1814 15.8284 20.6186 15.8284 22.0724V27.3919C15.8284 27.6653 15.7171 27.9136 15.5367 28.0932C15.3562 28.2727 15.1074 28.3833 14.8325 28.3833C14.2817 28.3833 13.8356 28.827 13.8356 29.3749V31.6919C13.8356 31.9271 13.8075 32.1551 13.7533 32.3746C13.4457 33.6415 12.2963 34.5818 10.916 34.5818H10.8422C9.27295 34.5818 8.00301 33.314 8.00768 31.7533L8.0208 27.5593C8.0217 27.2375 8.15359 26.9454 8.36589 26.7352C8.57909 26.5241 8.8718 26.3939 9.19632 26.3939C9.84535 26.3939 10.3718 25.8702 10.3718 25.2247V22.0724C10.3718 20.9954 9.49469 20.1229 8.4118 20.1229H4.74402C3.0935 20.1229 1.70479 18.8273 1.67109 17.1856C1.6374 15.5011 3.00087 14.1245 4.68697 14.1245H41.2532C42.9046 14.1245 44.2952 15.4202 44.3279 17.0618Z" fill="#FF3501"/>
<path d="M44.3279 17.0618C44.3345 17.3716 44.2933 17.6701 44.2129 17.952C38.4908 17.9464 24.8179 17.8338 22.7064 17.9026C19.8411 17.9966 19.1949 18.4235 19.1949 19.9025V20.0782C16.4531 20.1814 15.8284 20.6186 15.8284 22.0724V27.3919C15.8284 27.6653 15.7171 27.9136 15.5367 28.0932C15.3562 28.2727 15.1074 28.3833 14.8325 28.3833C14.2817 28.3833 13.8356 28.827 13.8356 29.3749V31.6919C13.8356 31.9271 13.8075 32.1551 13.7533 32.3746C12.401 32.1579 11.3695 30.9887 11.3742 29.5823L11.3873 25.3893C11.3882 25.0665 11.5201 24.7754 11.7324 24.5652C11.9456 24.354 12.2383 24.2238 12.5629 24.2238C13.2119 24.2238 13.7384 23.7002 13.7384 23.0546V19.9024C13.7384 18.8253 12.8612 17.9529 11.7783 17.9529H8.11055C6.46003 17.9529 5.07132 16.6572 5.03763 15.0155C5.03107 14.7058 5.07222 14.4073 5.15362 14.1245H41.2532C42.9046 14.1245 44.2952 15.4202 44.3279 17.0618Z" fill="#FF5023"/>
<path d="M27.0763 11.0754L20.404 17.7147C19.7353 18.3798 18.947 18.8532 18.1072 19.1332C16.0367 19.829 13.6578 19.3555 12.01 17.7147L5.33501 11.0754H27.0763Z" fill="#EEBF00"/>
<path d="M27.0763 11.0754L20.404 17.7147C19.7353 18.3798 18.947 18.8532 18.1072 19.1332C17.2683 18.8532 16.48 18.3798 15.8123 17.7147L9.1372 11.0754H27.0763Z" fill="#FFD422"/>
<path d="M46 12.0094C46 12.0588 45.9981 12.1071 45.9953 12.1554C45.9589 12.7795 45.6895 13.3423 45.2724 13.7572C44.8226 14.2046 44.2017 14.4808 43.5153 14.4808H2.48472C1.1128 14.4807 0 13.3739 0 12.0094C0 9.04789 1.38027 6.81832 3.46473 5.14126C5.1564 3.77957 7.31283 2.78149 9.57034 2.04953C15.8864 0.00421786 23 0.042286 23 0.042286C23 0.042286 46 -0.0813913 46 12.0094Z" fill="#FFA733"/>
<path d="M46 12.0094C46 12.0588 45.9981 12.1071 45.9953 12.1554H7.53448C6.16265 12.1554 5.04976 11.0486 5.04976 9.68406C5.04976 6.72252 6.43003 4.49295 8.51449 2.81598C8.84925 2.5462 9.2018 2.29143 9.57025 2.04953C15.8864 0.00421786 23 0.042286 23 0.042286C23 0.042286 46 -0.0813913 46 12.0094Z" fill="#FFB655"/>
<path d="M35.3625 4.36586C35.7613 4.78568 35.7424 5.44758 35.3205 5.84435C34.8984 6.24102 34.2329 6.22226 33.8341 5.80253C33.4353 5.3828 32.7011 3.92825 33.1232 3.53149C33.5453 3.13472 34.9637 3.94595 35.3625 4.36586Z" fill="#FFF5CC"/>
<path d="M29.789 9.53434C29.9972 10.0735 29.7265 10.6785 29.1844 10.8856C28.6423 11.0926 28.034 10.8234 27.8259 10.2842C27.6177 9.74496 27.4954 8.12206 28.0374 7.91501C28.5796 7.70805 29.5809 8.99513 29.789 9.53434Z" fill="#FFF5CC"/>
<path d="M24.0514 5.23299C24.0514 5.81063 23.5807 6.27879 23 6.27879C22.4193 6.27879 21.9486 5.81054 21.9486 5.23299C21.9486 4.65536 22.4193 3.0968 23 3.0968C23.5808 3.09671 24.0514 4.65536 24.0514 5.23299Z" fill="#FFF5CC"/>
<path d="M18.2701 10.1898C18.1249 10.749 17.5513 11.0853 16.9891 10.9409C16.4269 10.7964 16.0888 10.226 16.234 9.66673C16.3791 9.10751 17.2268 7.71552 17.7892 7.85993C18.3514 8.00434 18.4153 9.63063 18.2701 10.1898Z" fill="#FFF5CC"/>
<path d="M12.4855 5.63424C12.2323 6.15397 11.6035 6.3713 11.0808 6.11948C10.5583 5.86766 10.3398 5.24221 10.5929 4.72231C10.8461 4.20258 11.9529 3.00388 12.4756 3.25579C12.9982 3.5077 12.7387 5.11452 12.4855 5.63424Z" fill="#FFF5CC"/>
</svg>
