<svg viewBox="0 0 56 34" fill="none" xmlns="http://www.w3.org/2000/svg">
<path d="M54.9551 27.0961C54.7312 27.3404 54.4717 27.5624 54.1802 27.7512C52.3768 28.9234 49.9776 28.4618 48.7359 26.7348C48.7003 26.6864 48.6672 26.638 48.6339 26.5873C48.1257 25.8105 47.9242 24.9228 47.9989 24.0645C46.461 23.8485 45.0214 22.9985 44.1067 21.6008C43.5119 20.6906 43.218 19.6695 43.2038 18.6578C43.2014 18.5245 43.205 18.3923 43.2121 18.2588C41.545 18.3438 39.8791 17.8113 38.5699 16.7312C38.2061 17.9483 37.4253 19.0473 36.2749 19.7946C33.6967 21.4685 30.2451 20.7449 28.565 18.1761C26.8849 15.6084 27.6124 12.1684 30.1895 10.4945C32.0782 9.26796 34.4337 9.33051 36.2204 10.4602C36.2726 10.1462 36.3472 9.83571 36.4455 9.53233C36.5237 9.27973 36.6196 9.03181 36.7299 8.78978C37.2393 7.66353 38.0687 6.66489 39.1849 5.93999C39.7027 5.60359 40.2489 5.34739 40.8105 5.1691C43.6269 4.26952 46.8094 5.30837 48.5026 7.89608C49.5416 9.48264 49.8178 11.3456 49.4244 13.0573C51.0086 13.2427 52.5014 14.1021 53.4411 15.5376C54.5205 17.1879 54.6058 19.196 53.8463 20.8652C54.4364 21.1722 54.9601 21.629 55.3499 22.2252C56.3674 23.7824 56.1565 25.7833 54.9551 27.0961Z" fill="#B9F268"/>
<path d="M54.9551 27.0961C54.7312 27.3404 54.4717 27.5624 54.1802 27.7512C52.3768 28.9235 49.9776 28.4618 48.7359 26.7348C48.7003 26.6864 48.6672 26.6381 48.6339 26.5873C48.1257 25.8105 47.9242 24.9228 47.9989 24.0645C46.461 23.8485 45.0214 22.9985 44.1067 21.6008C43.5119 20.6907 43.218 19.6695 43.2038 18.6579C43.2014 18.5245 43.205 18.3923 43.2121 18.2588C41.545 18.3438 39.8791 17.8113 38.5699 16.7312C38.2061 17.9483 37.4253 19.0473 36.2749 19.7946C33.6967 21.4685 30.2451 20.7449 28.565 18.1761C26.8849 15.6084 27.6124 12.1684 30.1895 10.4945C32.0782 9.26798 34.4337 9.33053 36.2204 10.4603C36.2726 10.1462 36.3472 9.83573 36.4455 9.53235L54.7076 26.8434C54.7939 26.9249 54.8769 27.0099 54.9551 27.0961Z" fill="#8BCC3F"/>
<path d="M48.7359 10.2065V26.7348C48.7003 26.6864 48.6672 26.6381 48.6339 26.5873C48.1257 25.8105 47.9242 24.9228 47.9989 24.0645C46.461 23.8485 45.0214 22.9985 44.1067 21.6008C43.5119 20.6907 43.218 19.6695 43.2038 18.6579C43.2014 18.5245 43.205 18.3923 43.2121 18.2588C41.545 18.3438 39.8791 17.8113 38.5699 16.7312C38.2061 17.9483 37.4253 19.0473 36.2749 19.7946C33.6967 21.4685 30.2451 20.7449 28.565 18.1761C26.8849 15.6084 27.6124 12.1684 30.1895 10.4945C32.0782 9.26797 34.4337 9.33053 36.2204 10.4603C36.3163 9.88531 36.4869 9.32344 36.7299 8.78979H47.3142C48.0995 8.7899 48.7359 9.42381 48.7359 10.2065Z" fill="#8BCC3F"/>
<path d="M43.2038 18.6577C43.2014 18.5243 43.205 18.3921 43.2121 18.2586C41.545 18.3436 39.8791 17.8112 38.5699 16.731C38.2061 17.9482 37.4253 19.0472 36.2749 19.7944C33.6967 21.4684 30.2451 20.7448 28.565 18.1759C26.8849 15.6083 27.6124 12.1683 30.1895 10.4943C32.0782 9.26781 34.4337 9.33036 36.2204 10.4601C36.519 8.67041 37.5403 7.00823 39.1849 5.93995C39.7027 5.60355 40.2489 5.34735 40.8105 5.16907C42.6684 7.79927 43.7596 11.0031 43.7596 14.4562C43.7594 15.9095 43.5664 17.3179 43.2038 18.6577Z" fill="#8BCC3F"/>
<path d="M41.9822 14.4564C41.9822 14.5638 41.981 14.6701 41.9786 14.7775C41.8067 22.583 35.4026 28.8586 27.5269 28.8586C21.2057 28.8586 15.8325 24.8166 13.8692 19.1843C13.3857 17.7996 13.1085 16.3181 13.0753 14.7775C13.0729 14.6701 13.0717 14.5638 13.0717 14.4564C13.0717 10.2125 14.9142 6.39705 17.8455 3.76096C20.4084 1.45779 23.8029 0.0541992 27.5269 0.0541992C35.5105 0.0540902 41.9822 6.5021 41.9822 14.4564Z" fill="#FB4239"/>
<path d="M41.9786 14.7773C41.8067 22.5828 35.4026 28.8584 27.527 28.8584C21.2057 28.8584 15.8325 24.8164 13.8692 19.1841C13.3858 17.7994 13.1085 16.3179 13.0753 14.7773L23.9677 4.45255C24.9321 3.5388 26.1964 3.03479 27.527 3.03479C28.8575 3.03479 30.1218 3.53891 31.0862 4.45255L41.9786 14.7773Z" fill="#E21717"/>
<path d="M26.6407 11.2547C25.9736 12.6431 24.803 13.6901 23.3457 14.2013C22.7247 14.4185 22.0791 14.5295 21.4262 14.5295C21.3196 14.5295 21.2142 14.526 21.1075 14.52C20.2319 15.8469 18.9393 16.8657 17.412 17.4016C16.6228 17.6791 15.8029 17.8184 14.9723 17.8184C14.8468 17.8184 14.7211 17.816 14.5955 17.8089C14.3965 18.2893 14.1536 18.7498 13.8692 19.1841C13.3526 17.7038 13.0717 16.1125 13.0717 14.4562C13.0717 10.2123 14.9142 6.39686 17.8455 3.76077C17.9818 3.81864 18.1157 3.88119 18.2483 3.94614C18.6382 3.68994 19.0588 3.48223 19.5019 3.3264C20.1227 3.10921 20.7697 2.99817 21.4237 2.99817C23.8739 2.99817 26.0659 4.54582 26.8811 6.849C27.3943 8.30108 27.309 9.86639 26.6407 11.2547Z" fill="#E21717"/>
<path d="M25.4322 8.78983C25.4227 10.4272 24.3954 11.956 22.7556 12.5309C21.8776 12.839 20.9641 12.8237 20.1453 12.5487C19.5707 13.9854 18.4012 15.1777 16.8207 15.7325C15.6559 16.1409 14.4475 16.1397 13.3502 15.8068C13.0386 17.4407 12.1239 18.9268 10.7613 19.9386C11.862 20.5784 12.7495 21.5949 13.2056 22.8851C14.227 25.7774 12.7032 28.947 9.80153 29.9658C8.63209 30.3755 7.4188 30.3743 6.31805 30.0367C4.6865 29.5374 3.30619 28.3002 2.69598 26.573C2.50162 26.0253 2.3998 25.4657 2.38197 24.9144C2.3287 23.3361 2.96012 21.8109 4.08931 20.7283C2.41631 20.0153 1.036 18.6329 0.384234 16.7878C-0.851594 13.2923 0.990828 9.46155 4.49805 8.23145C6.29191 7.60223 8.17228 7.77572 9.74816 8.56197C10.3062 7.07218 11.497 5.83031 13.1191 5.26004C14.984 4.60609 16.9615 5.00036 18.4107 6.13129C18.849 5.63077 19.419 5.23291 20.092 4.99687C21.1513 4.62505 22.2638 4.72422 23.1975 5.18224C24.1038 5.62729 24.842 6.41234 25.2046 7.43702C25.3622 7.88436 25.4357 8.34119 25.4322 8.78983Z" fill="#B9F268"/>
<path d="M25.2047 7.43693C25.3623 7.88438 25.4357 8.3412 25.4322 8.78985C25.4227 10.4272 24.3954 11.956 22.7556 12.5309C21.8776 12.839 20.9641 12.8238 20.1453 12.5487C19.5707 13.9854 18.4013 15.1777 16.8207 15.7325C15.6559 16.1409 14.4475 16.1397 13.3502 15.8068C13.0386 17.4407 12.1239 18.9269 10.7613 19.9386C11.8621 20.5784 12.7495 21.5949 13.2056 22.8851C14.227 25.7774 12.7033 28.9471 9.80154 29.9659C8.6321 30.3755 7.4188 30.3743 6.31805 30.0367C4.6865 29.5374 3.30619 28.3002 2.69599 26.573C2.50163 26.0253 2.3998 25.4658 2.38197 24.9145L23.1975 5.18225C24.104 5.62719 24.8421 6.41224 25.2047 7.43693Z" fill="#8BCC3F"/>
<path d="M25.4322 8.7899C25.4227 10.4272 24.3954 11.956 22.7556 12.531C21.8776 12.8391 20.9641 12.8238 20.1454 12.5488C19.5707 13.9855 18.4013 15.1778 16.8207 15.7326C15.6559 16.141 14.4475 16.1398 13.3502 15.8069C13.0386 17.4407 12.1239 18.9269 10.7613 19.9386C11.8621 20.5784 12.7495 21.5949 13.2056 22.8852C14.227 25.7775 12.7033 28.9471 9.80154 29.9659C8.6321 30.3755 7.4188 30.3743 6.31805 30.0367V10.2065C6.31805 9.42381 6.95429 8.78979 7.73993 8.78979H25.4322V8.7899Z" fill="#8BCC3F"/>
<path d="M26.9346 10.5605L8.0954 29.3307V11.4587C8.0954 10.9627 8.49899 10.5605 8.99687 10.5605L26.9346 10.5605Z" fill="#FEC007"/>
<path d="M17.5245 10.5605H26.9346L8.0954 29.3307V19.4982L17.5245 10.5605Z" fill="#FE9700"/>
<path d="M46.9585 11.4587V29.3307L28.1194 10.5605H46.0572C46.5549 10.5605 46.9585 10.9627 46.9585 11.4587Z" fill="#FEC007"/>
<path d="M46.9585 19.4982V29.3307L28.1194 10.5605H37.5295L46.9585 19.4982Z" fill="#FE9700"/>
<path d="M1.5715 28.1266L25.1923 5.73556C26.5 4.49586 28.5538 4.49586 29.8616 5.73556L53.4824 28.1266C55.6981 30.2269 54.206 33.946 51.1478 33.946H3.90611C0.847871 33.946 -0.644113 30.2269 1.5715 28.1266Z" fill="#F9E8D4"/>
<path d="M51.1481 33.9454H3.90578C1.45665 33.9454 0.0123546 31.5607 0.672323 29.5327C1.08587 30.8419 2.27182 31.9031 3.90578 31.9031H51.1481C52.7821 31.9031 53.968 30.8418 54.3816 29.5327C55.0415 31.5607 53.5972 33.9454 51.1481 33.9454Z" fill="#EFCDB1"/>
<path d="M44.3382 15.3909C43.8715 15.3909 43.4932 15.0139 43.4932 14.5489V14.3637C43.4932 13.8987 43.8715 13.5217 44.3382 13.5217C44.8049 13.5217 45.1833 13.8987 45.1833 14.3637V14.5489C45.1833 15.0139 44.8049 15.3909 44.3382 15.3909Z" fill="#FE9700"/>
<path d="M42.31 13.9598C41.8433 13.9598 41.4649 13.5829 41.4649 13.1179V12.9328C41.4649 12.4678 41.8433 12.0908 42.31 12.0908C42.7767 12.0908 43.155 12.4678 43.155 12.9328V13.1179C43.1551 13.5829 42.7767 13.9598 42.31 13.9598Z" fill="#FE9700"/>
<path d="M11.3612 15.2982C10.8945 15.2982 10.5162 14.9213 10.5162 14.4563V14.2711C10.5162 13.8061 10.8945 13.4292 11.3612 13.4292C11.8279 13.4292 12.2063 13.8061 12.2063 14.2711V14.4563C12.2064 14.9213 11.8279 15.2982 11.3612 15.2982Z" fill="#FE9700"/>
<path d="M18.2851 27.3745C17.8184 27.3745 17.4401 26.9975 17.4401 26.5325V19.9457C17.4401 19.4807 17.8184 19.1038 18.2851 19.1038C18.7518 19.1038 19.1301 19.4807 19.1301 19.9457V26.5325C19.1302 26.9975 18.7518 27.3745 18.2851 27.3745Z" fill="#FE9700"/>
<path d="M24.4463 27.3745C23.9796 27.3745 23.6013 26.9975 23.6013 26.5325V19.9457C23.6013 19.4807 23.9796 19.1038 24.4463 19.1038C24.913 19.1038 25.2913 19.4807 25.2913 19.9457V26.5325C25.2914 26.9975 24.9131 27.3745 24.4463 27.3745Z" fill="#FE9700"/>
<path d="M30.6076 27.3745C30.1409 27.3745 29.7626 26.9975 29.7626 26.5325V19.9457C29.7626 19.4807 30.1409 19.1038 30.6076 19.1038C31.0743 19.1038 31.4526 19.4807 31.4526 19.9457V26.5325C31.4526 26.9975 31.0743 27.3745 30.6076 27.3745Z" fill="#FE9700"/>
<path d="M36.7688 27.3745C36.3021 27.3745 35.9238 26.9975 35.9238 26.5325V19.9457C35.9238 19.4807 36.3021 19.1038 36.7688 19.1038C37.2355 19.1038 37.6138 19.4807 37.6138 19.9457V26.5325C37.614 26.9975 37.2355 27.3745 36.7688 27.3745Z" fill="#FE9700"/>
</svg>
