<svg width="15" height="10" viewBox="0 0 15 10" fill="none" xmlns="http://www.w3.org/2000/svg">
<path d="M10.4674 9.87781L14.8823 5.29504C15.0392 5.13209 15.0392 4.86791 14.8823 4.70492L10.4673 0.122191C10.3104 -0.0407302 10.0559 -0.0407302 9.89888 0.122191L9.24146 0.804604C9.08225 0.969867 9.08487 1.2387 9.24725 1.4006L11.9511 4.09596H0.401965C0.179981 4.09596 0 4.28278 0 4.51321V5.48679C0 5.71722 0.179981 5.90404 0.401965 5.90404H11.9511L9.24732 8.5994C9.08487 8.7613 9.08225 9.03013 9.2415 9.1954L9.89891 9.87781C10.0559 10.0407 10.3104 10.0407 10.4674 9.87781Z" fill="#FD7A5C"/>
</svg>
