<svg width="18" height="21" viewBox="0 0 18 21" fill="#FC7A5C" xmlns="http://www.w3.org/2000/svg">
<path fill-rule="evenodd" clip-rule="evenodd" d="M18 17.7187C18 19.5309 16.5609 21 14.7857 21H3.21429C1.43909 21 0 19.5309 0 17.7187V6.56249H3.85714V5.24999C3.85714 2.35511 6.16419 0 9 0C11.8358 0 14.1429 2.35511 14.1429 5.24999V6.56249H18V17.7187ZM6.42857 5.24999V6.56248H11.5714V5.24999C11.5714 3.80255 10.4179 2.62499 9 2.62499C7.5821 2.62499 6.42857 3.80255 6.42857 5.24999ZM12.8571 10.1719C12.3246 10.1719 11.8929 9.73113 11.8929 9.18748C11.8929 8.64382 12.3246 8.20311 12.8571 8.20311C13.3897 8.20311 13.8214 8.64382 13.8214 9.18748C13.8214 9.73113 13.3897 10.1719 12.8571 10.1719ZM4.17857 9.18748C4.17857 9.73113 4.61029 10.1719 5.14286 10.1719C5.67542 10.1719 6.10714 9.73113 6.10714 9.18748C6.10714 8.64382 5.67542 8.20311 5.14286 8.20311C4.61029 8.20311 4.17857 8.64382 4.17857 9.18748Z"/>
</svg>
