<svg width="18" height="20" viewBox="0 0 18 20" fill="none" xmlns="http://www.w3.org/2000/svg">
<path fill-rule="evenodd" clip-rule="evenodd" d="M14.7857 20C16.5609 20 18 18.6008 18 16.875V4.99999H14.1429C14.1429 2.243 11.8358 0 9 0C6.16419 0 3.85714 2.243 3.85714 4.99999H0V16.875C0 18.6008 1.43909 20 3.21429 20H14.7857ZM5.14286 4.99999C5.14286 2.93224 6.87316 1.25 9 1.25C11.1268 1.25 12.8571 2.93224 12.8571 4.99999H5.14286ZM1.28571 16.875C1.28571 17.9088 2.15089 18.75 3.21429 18.75H14.7857C15.8491 18.75 16.7143 17.9088 16.7143 16.875V6.24999H14.1429V8.12498C14.1429 8.47017 13.8551 8.74998 13.5 8.74998C13.1449 8.74998 12.8571 8.47017 12.8571 8.12498V6.24999H5.14286V8.12498C5.14286 8.47017 4.85502 8.74998 4.5 8.74998C4.14498 8.74998 3.85714 8.47017 3.85714 8.12498V6.24999H1.28571V16.875Z" fill="#707DA3"/>
</svg>
