<svg width="12" height="14" viewBox="0 0 12 14" fill="none" xmlns="http://www.w3.org/2000/svg">
<path fill-rule="evenodd" clip-rule="evenodd" d="M6 14C9.31443 14 12 11.4543 12 8.31248C12 7.09021 11.5933 5.9582 10.901 5.03124L11.5529 4.41328C11.6885 4.28476 11.6885 4.07693 11.5529 3.94844L11.0625 3.4836C10.9269 3.35508 10.7077 3.35508 10.5721 3.4836L9.97499 4.04959C9.07789 3.29764 7.94424 2.79453 6.69231 2.66054V1.3125H7.5C7.69037 1.3125 7.84615 1.16483 7.84615 0.984373V0.328124C7.84615 0.147667 7.69037 0 7.5 0H4.5C4.30963 0 4.15385 0.147667 4.15385 0.328124V0.984373C4.15385 1.16483 4.30963 1.3125 4.5 1.3125H5.30769V2.66329C2.31924 2.98866 0 5.39218 0 8.31248C0 11.4543 2.68557 14 6 14ZM6 12.6875C3.44999 12.6875 1.38462 10.7297 1.38462 8.31248C1.38462 5.89529 3.44999 3.93749 6 3.93749C8.55001 3.93749 10.6154 5.89529 10.6154 8.31248C10.6154 10.7297 8.55001 12.6875 6 12.6875ZM6.69231 9.29685C6.69231 9.47731 6.53653 9.62498 6.34615 9.62498H5.65385C5.46347 9.62498 5.30769 9.47731 5.30769 9.29685V5.57811C5.30769 5.39765 5.46347 5.24999 5.65385 5.24999H6.34615C6.53653 5.24999 6.69231 5.39765 6.69231 5.57811V9.29685Z" fill="#FD7A5C"/>
</svg>
