<svg width="222" height="150" viewBox="0 0 222 150" fill="none" xmlns="http://www.w3.org/2000/svg">
<path opacity="0.8" fill-rule="evenodd" clip-rule="evenodd" d="M208.9 31.9925C212.538 36.2016 215.507 40.9478 217.704 46.064L17.5851 47.7734C22.6586 22.771 45.2772 3.91496 72.423 3.91496C81.5186 3.89834 90.4859 6.06658 98.5746 10.2383C119.357 -4.22676 147.146 -3.28387 166.906 12.5568C173.899 12.6459 180.817 14.0219 187.315 16.6164L86.7273 30.7848L208.9 31.9925ZM218.194 47.2422C220.714 53.5344 222.006 60.2533 222 67.0341C222 67.3029 221.996 67.5718 221.992 67.8406L221.992 67.8435H137.292L220.214 80.7409C215.43 98.7307 201.454 113.11 183.461 118.837C174.493 137.259 155.235 150 132.921 150C117.883 150 104.232 144.212 94.1842 134.801C84.1674 144.037 70.647 149.701 55.769 149.701C26.2126 149.701 2.01765 127.35 0 99.0448L67.0741 91.8973L1.50062 82.0962C2.61402 77.7144 4.27862 73.4924 6.45437 69.5318L218.194 47.2422Z" fill="white"/>
</svg>
