<svg width="15" height="15" viewBox="0 0 15 15" fill="none" xmlns="http://www.w3.org/2000/svg">
<path d="M1.70065 14.8898L7.49999 9.09095L13.2989 14.8898C13.4451 15.036 13.6828 15.036 13.829 14.8898L14.8898 13.829C15.036 13.6828 15.036 13.4451 14.8898 13.2989L9.09095 7.49999L14.8898 1.7011C15.036 1.55485 15.036 1.31718 14.8898 1.17097L13.829 0.110149C13.6828 -0.0360603 13.4451 -0.0360603 13.2989 0.110149L7.49999 5.90904L1.7011 0.109691C1.55485 -0.0365638 1.31718 -0.0365638 1.17097 0.109691L0.109691 1.17046C-0.0365638 1.31672 -0.0365638 1.55439 0.109691 1.70065L5.90904 7.49999L0.109691 13.2989C-0.0365638 13.4451 -0.0365638 13.6828 0.109691 13.829L1.17046 14.8898C1.31672 15.036 1.55439 15.036 1.70065 14.8898Z" fill="#77829E"/>
</svg>
