<svg width="18" height="14" viewBox="0 0 18 14" fill="none" xmlns="http://www.w3.org/2000/svg">
<path fill-rule="evenodd" clip-rule="evenodd" d="M16.3125 14C17.2444 14 18 13.2165 18 12.25V1.75C18 0.783498 17.2444 0 16.3125 0H1.6875C0.755514 0 0 0.783498 0 1.75V12.25C0 13.2165 0.755514 14 1.6875 14H16.3125ZM8.99998 8.74986C8.32117 8.76123 7.39504 7.95979 6.76216 7.41211L6.76216 7.41211C6.63435 7.3015 6.51849 7.20125 6.41906 7.12013C3.73287 4.93882 2.47587 3.9035 1.6875 3.23767V1.75H16.3125V3.23767C15.5242 3.90339 14.2675 4.9385 11.5809 7.12013C11.4814 7.2013 11.3655 7.3016 11.2376 7.41225L11.2376 7.41226C10.6047 7.95996 9.67887 8.76111 8.99998 8.74986ZM1.6875 5.48328V12.25H16.3125V5.48331C15.5069 6.14875 14.3641 7.08271 12.6229 8.49668C12.5092 8.58956 12.3843 8.69723 12.2496 8.8135C11.4454 9.50723 10.2862 10.5072 8.99998 10.5C7.7082 10.5072 6.5362 9.49369 5.74349 8.80819C5.61008 8.69283 5.48742 8.58675 5.37673 8.49639C3.63547 7.08239 2.49307 6.14868 1.6875 5.48328Z" fill="#77829E"/>
</svg>
