<svg width="24" height="24" viewBox="0 0 24 24" fill="none" xmlns="http://www.w3.org/2000/svg">
<path d="M23.9671 11.9999C23.9671 5.39009 18.6098 0.0327148 11.9999 0.0327148C5.39009 0.0327148 0.0327148 5.39009 0.0327148 11.9999C0.0327148 17.9737 4.40649 22.9245 10.1311 23.8229V15.4622H7.09501V11.9999H10.1311V9.36386C10.1311 6.36714 11.9147 4.70812 14.6491 4.70812C15.9606 4.70812 17.3311 4.94419 17.3311 4.94419V7.88845H15.8229C14.3344 7.88845 13.8753 8.81304 13.8753 9.75731V11.9999H17.1934L16.6622 15.4622H13.8753V23.8229C19.5934 22.9245 23.9671 17.9737 23.9671 11.9999Z" fill="#1877F2"/>
<path d="M16.6558 15.4623L17.187 12.0001H13.869V9.75743C13.869 8.81317 14.3345 7.88858 15.8165 7.88858H17.3247V4.94432C17.3247 4.94432 15.9542 4.70825 14.6427 4.70825C11.9083 4.70825 10.1247 6.36727 10.1247 9.36399V12.0001H7.08862V15.4623H10.1247V23.823C10.7345 23.9214 11.3575 23.9673 11.9935 23.9673C12.6296 23.9673 13.2526 23.9148 13.8624 23.823V15.4623H16.6558Z" fill="white"/>
</svg>
