<svg width="24" height="24" viewBox="0 0 24 24" fill="none" xmlns="http://www.w3.org/2000/svg">
<path fill-rule="evenodd" clip-rule="evenodd" d="M23.3377 4.1639C23.6328 4.92455 23.8361 5.79668 23.8951 7.06881C23.9541 8.34095 23.9672 8.75406 23.9672 12C23.9672 15.2459 23.9541 15.6524 23.8951 16.9311C23.8361 18.2032 23.6328 19.0754 23.3377 19.836C23.0361 20.6229 22.6229 21.2918 21.9607 21.9541C21.2984 22.6164 20.6295 23.0229 19.8426 23.3311C19.082 23.6262 18.2098 23.8295 16.9377 23.8885C15.6656 23.9475 15.259 23.9606 12.0066 23.9606C8.76065 23.9606 8.3541 23.9475 7.07541 23.8885C5.80328 23.8295 4.93114 23.6262 4.17049 23.3311C3.3836 23.0295 2.71475 22.6164 2.05246 21.9541C1.39016 21.2918 0.983603 20.6229 0.675407 19.836C0.380325 19.0754 0.177046 18.2032 0.11803 16.9311C0.0590132 15.659 0.0458984 15.2524 0.0458984 12C0.0458984 8.75406 0.0590132 8.3475 0.11803 7.06881C0.177046 5.79668 0.380325 4.92455 0.675407 4.1639C0.977046 3.37701 1.39016 2.70816 2.05246 2.04586C2.71475 1.38357 3.3836 0.977012 4.17049 0.668815C4.93114 0.373733 5.80328 0.170454 7.07541 0.111438C8.34754 0.0524214 8.7541 0.0393066 12.0066 0.0393066C15.2525 0.0393066 15.659 0.0524214 16.9377 0.111438C18.2098 0.170454 19.082 0.373733 19.8426 0.668815C20.6295 0.970454 21.2984 1.38357 21.9607 2.04586C22.6229 2.70816 23.0295 3.37701 23.3377 4.1639ZM21.3311 19.0557C21.4951 18.636 21.6918 18 21.7443 16.8327L21.7485 16.7302C21.7978 15.5505 21.8164 15.1051 21.8164 12C21.8164 8.80652 21.8033 8.42619 21.7443 7.16718C21.6918 5.99996 21.4951 5.3639 21.3311 4.94422C21.1082 4.38685 20.8525 3.98685 20.4328 3.56718C20.0131 3.1475 19.6131 2.88521 19.0557 2.66881C18.6361 2.50488 18 2.30816 16.8328 2.2557C15.5738 2.19668 15.1934 2.18357 12 2.18357C8.80655 2.18357 8.42623 2.19668 7.16721 2.2557C6 2.30816 5.36393 2.50488 4.94426 2.66881C4.38688 2.89177 3.98688 3.1475 3.56721 3.56718C3.14754 3.98685 2.88524 4.38685 2.66885 4.94422C2.50491 5.3639 2.30819 5.99996 2.25573 7.16718C2.19672 8.42619 2.1836 8.80652 2.1836 12C2.1836 15.1934 2.19672 15.5737 2.25573 16.8327C2.30819 18 2.50491 18.636 2.66885 19.0557C2.8918 19.6131 3.14754 20.0131 3.56721 20.4327C3.98688 20.8524 4.38688 21.1147 4.94426 21.3311C5.36393 21.495 6 21.6918 7.16721 21.7442C8.42623 21.8032 8.80655 21.8164 12 21.8164C15.1934 21.8164 15.5738 21.8032 16.8328 21.7442C18 21.6918 18.6361 21.495 19.0557 21.3311C19.6131 21.1082 20.0131 20.8524 20.4328 20.4327C20.8525 20.0131 21.1148 19.6131 21.3311 19.0557Z" fill="url(#paint0_linear)"/>
<path fill-rule="evenodd" clip-rule="evenodd" d="M5.85571 12C5.85571 8.60981 8.60325 5.85571 12 5.85571C15.3967 5.85571 18.1442 8.60325 18.1442 12C18.1442 15.3901 15.3901 18.1442 12 18.1442C8.60981 18.1442 5.85571 15.3967 5.85571 12ZM8.01309 12C8.01309 14.2033 9.7967 15.9869 12 15.9869C14.2033 15.9869 15.9869 14.2033 15.9869 12C15.9869 9.7967 14.2033 8.01309 12 8.01309C9.7967 8.01309 8.01309 9.7967 8.01309 12Z" fill="url(#paint1_linear)"/>
<path d="M18.387 7.04913C19.1801 7.04913 19.8231 6.40618 19.8231 5.61307C19.8231 4.81995 19.1801 4.177 18.387 4.177C17.5939 4.177 16.9509 4.81995 16.9509 5.61307C16.9509 6.40618 17.5939 7.04913 18.387 7.04913Z" fill="#BC30A0"/>
<path fill-rule="evenodd" clip-rule="evenodd" d="M0.104846 16.9311C0.0458296 15.659 0.0327148 15.2524 0.0327148 12C0.0327148 8.7475 0.0458296 8.34095 0.104846 7.06881C0.163862 5.79668 0.367141 4.92455 0.662223 4.1639C0.963862 3.37701 1.37698 2.70816 2.03927 2.04586C2.70157 1.38357 3.37042 0.977012 4.15731 0.668815C4.91796 0.373733 5.79009 0.170454 7.06222 0.111438C8.33435 0.0524214 8.74091 0.0393066 11.9934 0.0393066C15.2393 0.0393066 15.6458 0.0524214 16.9245 0.111438C18.1966 0.170454 19.0688 0.373733 19.8294 0.668815C20.6163 0.970454 21.2852 1.38357 21.9475 2.04586C22.6098 2.70816 23.0163 3.37701 23.3245 4.1639C23.6196 4.92455 23.8229 5.79668 23.8819 7.06881C23.9409 8.34095 23.954 8.7475 23.954 12C23.954 15.2459 23.9409 15.6524 23.8819 16.9311C23.8229 18.2032 23.6196 19.0754 23.3245 19.836C23.0229 20.6229 22.6098 21.2918 21.9475 21.9541C21.2852 22.6164 20.6163 23.0229 19.8294 23.3311C19.0688 23.6262 18.1966 23.8295 16.9245 23.8885C15.6524 23.9475 15.2458 23.9606 11.9934 23.9606C8.74747 23.9606 8.34091 23.9475 7.06222 23.8885C5.79009 23.8295 4.91796 23.6262 4.15731 23.3311C3.37042 23.0295 2.70157 22.6164 2.03927 21.9541C1.37698 21.2918 0.97042 20.6229 0.662223 19.836C0.367141 19.0754 0.163862 18.2032 0.104846 16.9311ZM2.26222 7.16718C2.20321 8.42619 2.19009 8.80652 2.19009 12C2.19009 15.1934 2.20321 15.5737 2.26222 16.8327C2.31468 18 2.5114 18.636 2.67534 19.0557C2.89829 19.6131 3.15403 20.0131 3.5737 20.4327C3.99337 20.8524 4.39337 21.1147 4.95075 21.3311C5.37042 21.495 6.00648 21.6918 7.1737 21.7442C8.43271 21.8032 8.81304 21.8164 12.0065 21.8164C15.1999 21.8164 15.5803 21.8032 16.8393 21.7442C18.0065 21.6918 18.6426 21.495 19.0622 21.3311C19.6196 21.1082 20.0196 20.8524 20.4393 20.4327C20.8589 20.0131 21.1212 19.6131 21.3376 19.0557C21.5016 18.636 21.6983 18 21.7507 16.8327C21.8098 15.5737 21.8229 15.1934 21.8229 12C21.8229 8.80652 21.8098 8.42619 21.7507 7.16718C21.6983 5.99996 21.5016 5.3639 21.3376 4.94422C21.1147 4.38685 20.8589 3.98685 20.4393 3.56718C20.0196 3.1475 19.6196 2.88521 19.0622 2.66881C18.6426 2.50488 18.0065 2.30816 16.8393 2.2557C15.5803 2.19668 15.1999 2.18357 12.0065 2.18357C8.81304 2.18357 8.43271 2.19668 7.1737 2.2557C6.00648 2.30816 5.37042 2.50488 4.95075 2.66881C4.39337 2.89177 3.99337 3.1475 3.5737 3.56718C3.15403 3.98685 2.89173 4.38685 2.67534 4.94422C2.5114 5.3639 2.31468 5.99996 2.26222 7.16718Z" fill="url(#paint2_linear)"/>
<defs>
<linearGradient id="paint0_linear" x1="-5.25967" y1="2.03969" x2="2.5785" y2="28.2614" gradientUnits="userSpaceOnUse">
<stop stop-color="#4367DC"/>
<stop offset="0.0428861" stop-color="#4C62D6"/>
<stop offset="0.1142" stop-color="#6654C7"/>
<stop offset="0.2045" stop-color="#8F3DAE"/>
<stop offset="0.2341" stop-color="#9E35A5"/>
<stop offset="0.4512" stop-color="#D42F7F"/>
<stop offset="0.8242" stop-color="#D73578"/>
</linearGradient>
<linearGradient id="paint1_linear" x1="9.64919" y1="3.92877" x2="3.36548" y2="14.4939" gradientUnits="userSpaceOnUse">
<stop offset="0.3304" stop-color="#D42F7F"/>
<stop offset="1" stop-color="#F7772E"/>
</linearGradient>
<linearGradient id="paint2_linear" x1="4.80552" y1="-6.231" x2="-5.77673" y2="19.0085" gradientUnits="userSpaceOnUse">
<stop offset="0.2341" stop-color="#9E35A5" stop-opacity="0.01"/>
<stop offset="0.4512" stop-color="#D42F7F" stop-opacity="0.5"/>
<stop offset="0.7524" stop-color="#F7772E"/>
<stop offset="0.9624" stop-color="#FEF780"/>
</linearGradient>
</defs>
</svg>
