<svg width="22" height="18" viewBox="0 0 22 18" fill="none" xmlns="http://www.w3.org/2000/svg">
<path fill-rule="evenodd" clip-rule="evenodd" d="M18.5604 17.9867L13.0603 18C12.6808 18 12.3728 17.712 12.3728 17.3571V12.2107L9.62278 12.1986V17.3418C9.62278 17.6967 9.31478 17.9847 8.93527 17.9847H3.43522C3.05572 17.9847 2.74772 17.6967 2.74772 17.3418V7.57774L0.991983 8.91899C0.939992 8.95792 0.843773 8.9895 0.777179 8.9895C0.687045 8.9895 0.567705 8.93649 0.510762 8.87116L0.0767486 8.37254C0.0344089 8.32368 0 8.23296 0 8.17006C0 8.08577 0.0567327 7.97414 0.126599 7.92089L10.1285 0.286411C10.3381 0.128314 10.7268 0 10.9961 0C11.2653 0 11.654 0.128314 11.8636 0.286411L21.869 7.92089C21.9399 7.97414 21.9975 8.08644 21.9975 8.17151C21.9975 8.23433 21.9632 8.3249 21.921 8.37371L21.487 8.87237C21.43 8.93782 21.3106 8.99096 21.2203 8.99096C21.153 8.99096 21.0559 8.9587 21.0036 8.91899L19.2479 7.57774V17.3438C19.2479 17.6987 18.9399 17.9867 18.5604 17.9867ZM13.7474 11.5661V16.7162L17.8681 16.7041L17.8729 6.52858L10.9978 1.28212L4.12273 6.52858V16.7041H8.24735V11.5553C8.24735 11.2004 8.55535 10.9124 8.93485 10.9124H8.93699L13.062 10.9232C13.4392 10.9254 13.7462 11.2135 13.7474 11.5661Z" fill="#77829E"/>
</svg>
