<svg width="22" height="18" viewBox="0 0 22 18" fill="none" xmlns="http://www.w3.org/2000/svg">
<path fill-rule="evenodd" clip-rule="evenodd" d="M20.9213 10.7427C20.8454 10.8393 20.6872 10.9177 20.5681 10.9177C20.4769 10.9177 20.346 10.8681 20.2759 10.807L11.2921 3.02167C11.2215 2.96179 11.0906 2.91321 10.9999 2.91321C10.9092 2.91321 10.7784 2.96179 10.7078 3.02167L1.72435 10.807C1.6542 10.8679 1.52343 10.9174 1.43247 10.9174C1.31301 10.9174 1.15442 10.8386 1.07853 10.7415L0.104641 9.49579C0.0465705 9.42194 -0.000572205 9.28419 -0.000572205 9.18836C-0.000572205 9.06302 0.073946 8.89652 0.165733 8.81666L9.83315 0.439438C10.1133 0.19688 10.6352 0 10.998 0C11.3608 0 11.8827 0.19688 12.1628 0.439438L21.8303 8.81666C21.9236 8.89656 21.9994 9.06416 21.9994 9.1908C21.9994 9.28616 21.9527 9.42331 21.8952 9.49701L20.9213 10.7427ZM18.3319 17.3571C18.3319 17.712 18.0582 18 17.7209 18L13.4427 17.9876L13.3524 17.9806C13.0578 17.9346 12.8316 17.6673 12.8316 17.3446L12.8316 13.4994C12.8316 13.1444 12.5578 12.8564 12.2205 12.8564H9.77627C9.43896 12.8564 9.16521 13.1444 9.16521 13.4994V17.3454C9.16521 17.6985 8.8928 17.9866 8.55717 17.9883L4.27744 18C3.94013 18 3.66637 17.712 3.66637 17.3571V10.7713L10.7078 4.66923C10.7784 4.60935 10.9092 4.56077 10.9999 4.56077C11.0906 4.56077 11.2215 4.60935 11.2921 4.66923L18.3319 10.7668V17.3571Z" fill="#FB7A58"/>
</svg>
