<svg width="198" height="137" viewBox="0 0 198 137" fill="none" xmlns="http://www.w3.org/2000/svg">
<path opacity="0.1" d="M5.90716 122.994C8.90369 122.994 11.3329 122.66 11.3329 122.248C11.3329 121.836 8.90369 121.502 5.90716 121.502C2.91062 121.502 0.481445 121.836 0.481445 122.248C0.481445 122.66 2.91062 122.994 5.90716 122.994Z" fill="#FD7A5C"/>
<path opacity="0.1" d="M26.6913 125.102C29.6879 125.102 32.117 124.768 32.117 124.356C32.117 123.944 29.6879 123.61 26.6913 123.61C23.6948 123.61 21.2656 123.944 21.2656 124.356C21.2656 124.768 23.6948 125.102 26.6913 125.102Z" fill="#FD7A5C"/>
<path opacity="0.1" d="M51.1747 122.248C54.1713 122.248 56.6004 121.914 56.6004 121.502C56.6004 121.09 54.1713 120.756 51.1747 120.756C48.1782 120.756 45.749 121.09 45.749 121.502C45.749 121.914 48.1782 122.248 51.1747 122.248Z" fill="#FD7A5C"/>
<path opacity="0.1" d="M18.3718 130.887C20.5025 130.887 22.2299 130.65 22.2299 130.358C22.2299 130.065 20.5025 129.828 18.3718 129.828C16.241 129.828 14.5137 130.065 14.5137 130.358C14.5137 130.65 16.241 130.887 18.3718 130.887Z" fill="#FD7A5C"/>
<path opacity="0.1" d="M39.947 130.358C42.0777 130.358 43.8051 130.121 43.8051 129.828C43.8051 129.536 42.0777 129.299 39.947 129.299C37.8162 129.299 36.0889 129.536 36.0889 129.828C36.0889 130.121 37.8162 130.358 39.947 130.358Z" fill="#FD7A5C"/>
<path d="M26.809 124.188C26.809 124.188 19.1979 99.2406 27.9984 89.2486C34.584 81.772 42.0565 82.6672 45.4039 83.5918C47.1569 84.0589 48.6165 85.2719 49.3965 86.9098C50.567 89.4315 50.3547 93.5312 42.0943 98.3139C28.2631 106.322 27.4037 117.306 27.4037 117.306L26.809 124.188Z" fill="#FD7A5C"/>
<path d="M44.2129 87.1305C44.2129 87.1305 21.7788 94.1448 26.8094 124.188" stroke="#565987"/>
<path d="M31.1104 89.6459C31.1104 89.6459 34.1994 91.7262 33.2117 94.8551" stroke="#565987"/>
<path d="M41.9623 91.4951C41.9623 91.4951 40.0711 89.5745 37.7764 90.6335" stroke="#565987"/>
<path d="M33.0942 101.161C33.0942 101.161 29.7783 99.4802 28.9209 101.582" stroke="#565987"/>
<path d="M24.8887 104.666C24.8887 104.666 27.3788 104.469 27.425 105.66" stroke="#565987"/>
<path d="M26.5068 124.388C26.5068 124.388 35.4208 106.255 37.8689 106.652C39.0309 106.841 39.5668 107.984 39.8105 109.134C40.1126 110.624 39.943 112.171 39.3251 113.559C38.0643 116.449 34.6559 121.965 26.5068 124.388Z" fill="#FD7A5C"/>
<path d="M37.7952 110.094C37.7952 110.094 28.44 123.661 26.6328 124.255" stroke="#565987"/>
<path d="M38.6569 112.21H36.4736" stroke="#565987"/>
<path d="M36.0402 117.174L32.6191 117.321" stroke="#565987"/>
<path d="M33.958 113.204L34.3299 114.986" stroke="#565987"/>
<path d="M30.3185 118.63L30.3858 120.25" stroke="#565987"/>
<path d="M26.7652 124.388C26.7652 124.388 17.8512 106.255 15.4031 106.652C14.2411 106.841 13.7052 107.984 13.4615 109.134C13.1618 110.62 13.3321 112.162 13.949 113.547C15.2119 116.449 18.6098 121.965 26.7652 124.388Z" fill="#FD7A5C"/>
<path d="M15.4697 110.094C15.4697 110.094 24.825 123.661 26.6321 124.255" stroke="#565987"/>
<path d="M14.6104 112.21H16.7937" stroke="#565987"/>
<path d="M17.2246 117.174L20.6477 117.321" stroke="#565987"/>
<path d="M19.3094 113.204L18.9375 114.986" stroke="#565987"/>
<path d="M22.9492 118.63L22.882 120.25" stroke="#565987"/>
<path d="M42.069 128.622C42.3121 128.424 42.4894 128.158 42.5776 127.857C42.658 127.546 42.5099 127.221 42.2224 127.077C41.8967 126.951 41.5479 127.178 41.2852 127.405C41.0225 127.632 40.7179 127.895 40.3732 127.846C40.731 127.517 40.8904 127.024 40.7935 126.548C40.779 126.451 40.7383 126.359 40.6758 126.283C40.4951 126.09 40.1673 126.174 39.9509 126.325C39.2616 126.808 39.0704 127.743 39.0662 128.586C39.0283 128.277 39.0241 127.965 39.0536 127.655C39.0536 127.344 38.9653 126.998 38.7026 126.832C38.5401 126.742 38.3564 126.699 38.171 126.705C37.86 126.705 37.5175 126.724 37.3052 126.951C37.0426 127.233 37.1098 127.704 37.3389 128.015C37.5944 128.303 37.8971 128.545 38.234 128.731C38.4867 128.885 38.702 129.093 38.8645 129.341C38.8833 129.375 38.8987 129.412 38.9107 129.45H40.8502C41.2926 129.231 41.7027 128.952 42.069 128.622Z" fill="#FD7A5C"/>
<path d="M8.10461 121.32C8.34786 121.122 8.52524 120.855 8.61314 120.555C8.69299 120.243 8.54524 119.918 8.25801 119.773C7.93229 119.649 7.58557 119.876 7.3208 120.103C7.05603 120.33 6.75553 120.59 6.40881 120.542C6.76769 120.213 6.92731 119.72 6.82908 119.243C6.81333 119.147 6.77197 119.056 6.7093 118.981C6.52859 118.788 6.20077 118.869 5.98433 119.023C5.29509 119.506 5.10386 120.441 5.09966 121.284C5.06181 120.974 5.05758 120.661 5.08705 120.351C5.08705 120.04 5.0009 119.695 4.73823 119.529C4.57491 119.44 4.3905 119.396 4.20448 119.403C3.89558 119.391 3.55096 119.422 3.33872 119.649C3.07605 119.931 3.1454 120.401 3.37234 120.7C3.62752 120.989 3.93114 121.233 4.26963 121.418C4.52289 121.572 4.73837 121.78 4.90003 122.028C4.91904 122.063 4.9352 122.099 4.94836 122.137H6.88792C7.32867 121.921 7.73798 121.646 8.10461 121.32Z" fill="#FD7A5C"/>
<path d="M19.4245 128.622C19.6676 128.424 19.8449 128.158 19.933 127.857C20.0135 127.546 19.8654 127.221 19.5779 127.077C19.2522 126.951 18.9034 127.178 18.6407 127.405C18.378 127.632 18.0733 127.895 17.7287 127.846C18.0865 127.517 18.2459 127.024 18.149 126.548C18.1345 126.451 18.0938 126.359 18.0313 126.283C17.8506 126.09 17.5228 126.174 17.3063 126.325C16.6171 126.808 16.4259 127.743 16.4217 128.586C16.3838 128.277 16.3796 127.965 16.409 127.655C16.409 127.344 16.3229 126.998 16.0602 126.832C15.8968 126.742 15.7125 126.699 15.5265 126.705C15.2176 126.705 14.8729 126.724 14.6607 126.951C14.398 127.233 14.4653 127.704 14.6943 128.015C14.9498 128.303 15.2526 128.545 15.5895 128.731C15.8422 128.885 16.0575 129.093 16.2199 129.341C16.2387 129.375 16.2542 129.412 16.2662 129.45H18.2057C18.648 129.231 19.0581 128.952 19.4245 128.622Z" fill="#FD7A5C"/>
<path d="M51.5276 113.86C51.5276 113.86 52.2546 114.812 51.1913 116.247C50.1281 117.682 49.2539 118.895 49.6069 119.79C49.6069 119.79 51.2103 117.123 52.5152 117.085C53.8201 117.048 52.9628 115.463 51.5276 113.86Z" fill="#FD7A5C"/>
<path opacity="0.1" d="M51.5278 113.86C51.5911 113.952 51.6413 114.052 51.677 114.158C52.9504 115.654 53.6271 117.05 52.4041 117.085C51.263 117.119 49.8971 119.157 49.5693 119.672C49.5798 119.712 49.5925 119.75 49.6072 119.79C49.6072 119.79 51.2105 117.123 52.5154 117.085C53.8204 117.048 52.963 115.463 51.5278 113.86Z" fill="black"/>
<path d="M52.8786 115.072C52.8786 115.406 52.8408 115.677 52.7945 115.677C52.7483 115.677 52.7105 115.406 52.7105 115.072C52.7105 114.738 52.7588 114.896 52.805 114.896C52.8513 114.896 52.8786 114.738 52.8786 115.072Z" fill="#FFD037"/>
<path d="M53.3435 115.472C53.0493 115.631 52.7929 115.728 52.7719 115.682C52.7509 115.636 52.9694 115.472 53.2636 115.318C53.5578 115.165 53.4401 115.274 53.4633 115.318C53.4864 115.362 53.6377 115.312 53.3435 115.472Z" fill="#FFD037"/>
<path d="M47.6859 113.86C47.6859 113.86 46.9588 114.812 48.0221 116.247C49.0854 117.682 49.9617 118.895 49.6065 119.79C49.6065 119.79 48.0032 117.123 46.6983 117.085C45.3933 117.048 46.2591 115.463 47.6859 113.86Z" fill="#FD7A5C"/>
<path opacity="0.1" d="M47.6859 113.86C47.6229 113.952 47.5733 114.052 47.5388 114.158C46.2654 115.654 45.5866 117.05 46.8096 117.085C47.9507 117.119 49.3186 119.157 49.6465 119.672C49.6339 119.712 49.6212 119.75 49.6065 119.79C49.6065 119.79 48.0032 117.123 46.6983 117.085C45.3933 117.048 46.2591 115.463 47.6859 113.86Z" fill="black"/>
<path d="M46.3355 115.072C46.3355 115.406 46.3733 115.677 46.4195 115.677C46.4658 115.677 46.5036 115.406 46.5036 115.072C46.5036 114.738 46.4573 114.896 46.4111 114.896C46.3649 114.896 46.3355 114.738 46.3355 115.072Z" fill="#FFD037"/>
<path d="M45.871 115.472C46.1652 115.631 46.4216 115.728 46.4447 115.682C46.4678 115.636 46.245 115.472 45.953 115.318C45.6609 115.165 45.7743 115.274 45.7428 115.318C45.7113 115.362 45.5789 115.312 45.871 115.472Z" fill="#FFD037"/>
<path d="M46.5664 119.664C46.5664 119.664 48.6005 119.603 49.212 119.166C49.8235 118.729 52.3388 118.208 52.4922 118.907C52.6456 119.607 55.5455 122.387 53.2508 122.406C50.9561 122.425 47.9197 122.049 47.3082 121.677C46.6967 121.305 46.5664 119.664 46.5664 119.664Z" fill="#A8A8A8"/>
<path opacity="0.2" d="M53.2929 122.162C50.9982 122.181 47.9596 121.805 47.3481 121.433C46.8816 121.149 46.6967 120.132 46.6358 119.662H46.5664C46.5664 119.662 46.6967 121.303 47.3082 121.675C47.9197 122.047 50.9561 122.423 53.2508 122.404C53.9149 122.404 54.1418 122.162 54.1292 121.813C54.0346 122.028 53.7846 122.158 53.2929 122.162Z" fill="black"/>
<path opacity="0.799748" d="M128.685 136.979C166.916 136.979 197.908 135.573 197.908 133.84C197.908 132.106 166.916 130.7 128.685 130.7C90.4541 130.7 59.4619 132.106 59.4619 133.84C59.4619 135.573 90.4541 136.979 128.685 136.979Z" fill="white"/>
<path d="M121.633 39.9781C121.633 39.9781 126.045 48.3268 126.388 49.5183C126.571 50.1971 127.173 50.6787 127.876 50.7077C127.876 50.7077 132.272 51.7583 133.322 51.8991C134.373 52.0399 143.48 52.809 143.48 52.809C143.48 52.809 145.792 52.8805 146.071 52.0399C146.328 51.2708 150.793 47.2299 153.378 50.756C153.861 51.4175 154 52.2699 153.752 53.0507C153.277 54.5637 152.302 56.9655 151.255 55.4714C149.784 53.3701 148.074 53.9606 148.074 55.0806C148.074 56.2006 145.72 55.7845 144.951 55.9421C144.531 56.0283 143.085 56.4129 141.835 56.7491C140.384 57.1413 138.897 57.3884 137.397 57.4866C134.915 57.6485 131.257 57.7829 129.96 57.2933C128.395 56.6986 125.665 56.562 124.497 56.5305C124.11 56.5212 123.736 56.387 123.431 56.1481C121.81 54.8787 120.438 53.3189 119.386 51.5482C117.564 48.3962 113.818 41.8693 114.07 39.9781C114.322 38.0869 121.633 39.9781 121.633 39.9781Z" fill="#EFB7B9"/>
<path opacity="0.05" d="M121.633 39.9781C121.633 39.9781 126.045 48.3268 126.388 49.5183C126.571 50.1971 127.173 50.6787 127.876 50.7077C127.876 50.7077 132.272 51.7583 133.322 51.8991C134.373 52.0399 143.48 52.809 143.48 52.809C143.48 52.809 145.792 52.8805 146.071 52.0399C146.328 51.2708 150.793 47.2299 153.378 50.756C153.861 51.4175 154 52.2699 153.752 53.0507C153.277 54.5637 152.302 56.9655 151.255 55.4714C149.784 53.3701 148.074 53.9606 148.074 55.0806C148.074 56.2006 145.72 55.7845 144.951 55.9421C144.531 56.0283 143.085 56.4129 141.835 56.7491C140.384 57.1413 138.897 57.3884 137.397 57.4866C134.915 57.6485 131.257 57.7829 129.96 57.2933C128.395 56.6986 125.665 56.562 124.497 56.5305C124.11 56.5212 123.736 56.387 123.431 56.1481C121.81 54.8787 120.438 53.3189 119.386 51.5482C117.564 48.3962 113.818 41.8693 114.07 39.9781C114.322 38.0869 121.633 39.9781 121.633 39.9781Z" fill="black"/>
<path d="M189.448 118.182C189.432 127.459 182.116 135.079 172.848 135.473C163.58 135.867 155.644 128.895 154.841 119.653C154.815 119.372 154.796 119.09 154.788 118.813V118.798C154.78 118.589 154.775 118.379 154.775 118.168C154.775 108.593 162.537 100.831 172.112 100.831C181.686 100.831 189.448 108.593 189.448 118.168V118.182Z" fill="#77829E"/>
<path d="M172.111 127.628C177.334 127.628 181.568 123.394 181.568 118.172C181.568 112.949 177.334 108.716 172.111 108.716C166.889 108.716 162.655 112.949 162.655 118.172C162.655 123.394 166.889 127.628 172.111 127.628Z" fill="#DCE0ED"/>
<path d="M172.112 123.846C175.246 123.846 177.786 121.305 177.786 118.172C177.786 115.038 175.246 112.498 172.112 112.498C168.979 112.498 166.438 115.038 166.438 118.172C166.438 121.305 168.979 123.846 172.112 123.846Z" fill="#77829F"/>
<path d="M126.584 85.2498L84.8379 86.0904V79.9376C85.2119 74.9847 90.3014 73.2468 94.9244 72.7026C98.5387 72.2923 102.198 72.5668 105.711 73.5116C114.568 75.8567 120.21 76.3106 122.99 76.3548C124.248 76.3737 125.32 77.2746 125.554 78.5108C125.686 79.2147 125.817 79.9817 125.938 80.7382C126.031 81.3308 126.119 81.915 126.199 82.4592C126.43 84.0268 126.584 85.2498 126.584 85.2498Z" fill="#77829F"/>
<path d="M159.888 119.292H73.1673C71.7986 119.306 70.5539 118.501 70.0048 117.247C69.3512 115.686 70.2653 114.69 71.2404 114.106C73.2358 112.923 74.7484 111.073 75.5103 108.882C76.4349 106.15 77.3385 101.876 77.6936 95.1977C78.0593 88.2905 80.5599 84.8758 83.2622 83.2199C86.7526 81.0849 90.5792 81.8856 90.5792 81.8856L125.741 82.1671C126.367 82.451 126.946 82.8287 127.458 83.2872C130.591 86.2039 126.023 90.0115 126.023 90.0115C116.216 100.378 123.64 110.884 123.64 110.884H141.632C144.993 110.902 148.281 109.895 151.056 107.999C153.488 106.318 154.418 104.694 154.793 103.71C155.07 102.958 155.351 102.208 155.688 101.481C160.407 91.245 154.715 74.5938 152.258 68.3675C151.649 66.8188 151.239 65.9152 151.239 65.9152L156.881 65.495L160.454 65.2239H160.489C168.353 78.7861 171.276 92.7223 172.257 103.048C172.349 104.021 172.425 104.965 172.486 105.87C172.711 109.351 171.484 112.769 169.097 115.312C166.71 117.856 163.376 119.296 159.888 119.292Z" fill="#FD7A5C"/>
<path opacity="0.1" d="M126.201 82.4592H84.8379V80.7382H125.94C126.033 81.3202 126.121 81.9044 126.201 82.4592Z" fill="black"/>
<path opacity="0.1" d="M127.46 83.2998H83.5967C83.4826 83.3001 83.3696 83.2772 83.2646 83.2325C86.755 81.0975 90.5816 81.8982 90.5816 81.8982L125.744 82.1797C126.37 82.4636 126.948 82.8413 127.46 83.2998Z" fill="black"/>
<rect x="67.3887" y="81.1479" width="61.2967" height="1.72101" rx="0.860507" fill="#DCE0ED"/>
<path opacity="0.1" d="M172.257 103.053C170.258 105.225 168.787 106.081 168.857 103.788C169.067 96.8535 156.879 65.5012 156.879 65.5012L160.483 65.228C168.348 78.7797 171.273 92.7159 172.257 103.053Z" fill="black"/>
<path opacity="0.1" d="M189.343 116.272C187.273 116.768 184.72 117.272 181.568 117.743C180.395 117.916 179.134 118.081 177.785 118.239C174.564 118.622 170.838 118.956 166.535 119.212C165.316 119.285 164.05 119.351 162.737 119.412C160.279 119.524 157.647 119.609 154.843 119.668L154.79 118.827V118.813C158.709 117.23 164.877 113.009 165.868 102.012C170.888 100.078 176.521 100.582 181.118 103.377C185.714 106.173 188.753 110.942 189.345 116.289L189.343 116.272Z" fill="black"/>
<path d="M151.521 119.292C151.521 119.292 171.42 117.132 164.566 86.8112C164.566 86.8112 174.398 95.826 180.515 100.836C186.632 105.845 197.536 112.752 197.536 112.752C197.536 112.752 191.026 118.836 151.521 119.292Z" fill="#FD7A5C"/>
<path opacity="0.1" d="M151.521 119.292C151.521 119.292 171.42 117.132 164.566 86.8112C164.566 86.8112 174.398 95.826 180.515 100.836C186.632 105.845 197.536 112.752 197.536 112.752C197.536 112.752 191.026 118.836 151.521 119.292Z" fill="white"/>
<path d="M98.3567 135.508C107.931 135.508 115.693 127.746 115.693 118.172C115.693 108.597 107.931 100.836 98.3567 100.836C88.7822 100.836 81.0205 108.597 81.0205 118.172C81.0205 127.746 88.7822 135.508 98.3567 135.508Z" fill="#77829E"/>
<path d="M98.3565 127.628C103.579 127.628 107.813 123.394 107.813 118.172C107.813 112.949 103.579 108.716 98.3565 108.716C93.134 108.716 88.9004 112.949 88.9004 118.172C88.9004 123.394 93.134 127.628 98.3565 127.628Z" fill="#DCE0ED"/>
<path d="M98.3563 123.846C101.49 123.846 104.03 121.305 104.03 118.172C104.03 115.038 101.49 112.498 98.3563 112.498C95.2228 112.498 92.6826 115.038 92.6826 118.172C92.6826 121.305 95.2228 123.846 98.3563 123.846Z" fill="#77829F"/>
<path opacity="0.1" d="M117.794 112.965C117.794 101.771 108.903 92.6949 97.936 92.6949C86.969 92.6949 78.0781 101.771 78.0781 112.965C78.0781 113.438 78.0942 113.907 78.1265 114.37H117.745C117.778 113.907 117.794 113.438 117.794 112.965Z" fill="black"/>
<path d="M117.058 112.616C117.058 101.836 108.497 93.0963 97.9359 93.0963C87.3744 93.0963 78.8135 101.836 78.8135 112.616C78.8135 113.072 78.8303 113.522 78.8597 113.969H117.012C117.041 113.522 117.058 113.072 117.058 112.616Z" fill="#FD7A5C"/>
<path opacity="0.1" d="M117.058 112.616C117.058 112.929 117.058 113.246 117.035 113.549C117.035 113.69 117.02 113.828 117.012 113.969H78.8597C78.8597 113.828 78.8429 113.69 78.8366 113.549C78.8219 113.24 78.8135 112.918 78.8135 112.616C78.8135 101.836 87.3744 93.0963 97.9359 93.0963C108.497 93.0963 117.058 101.836 117.058 112.616Z" fill="white"/>
<path opacity="0.1" d="M117.035 113.559C117.035 113.7 117.021 113.839 117.012 113.98H78.86C78.86 113.839 78.8432 113.7 78.8369 113.559H117.035Z" fill="black"/>
<rect opacity="0.1" x="70.4482" y="114.389" width="51.374" height="4.4822" rx="2.2411" fill="black"/>
<rect x="70.4482" y="113.969" width="51.374" height="4.4822" rx="2.2411" fill="#DCE0ED"/>
<path opacity="0.1" d="M168.836 84.7358C170.103 84.163 169.961 81.1131 168.519 77.9238C167.077 74.7344 164.881 72.6133 163.614 73.1861C162.347 73.7589 162.489 76.8087 163.931 79.9981C165.373 83.1875 167.569 85.3086 168.836 84.7358Z" fill="black"/>
<path d="M169.046 84.525C170.313 83.9522 170.171 80.9023 168.729 77.713C167.287 74.5236 165.091 72.4025 163.824 72.9753C162.557 73.5481 162.699 76.5979 164.141 79.7873C165.583 82.9766 167.779 85.0978 169.046 84.525Z" fill="#DCE0ED"/>
<path opacity="0.1" d="M160.451 65.228V68.5209H154.042C153.445 68.5215 152.85 68.4737 152.26 68.378C151.651 66.8293 151.241 65.9257 151.241 65.9257L156.883 65.5054L160.451 65.228Z" fill="black"/>
<path d="M160.451 68.0922H154.042C148.413 68.0922 143.851 63.8894 143.851 58.6844V57.8123C143.851 52.6177 148.413 48.4066 154.042 48.4066L160.451 48.9887V68.0922Z" fill="#FD7A5C"/>
<path d="M149.892 53.9753C149.892 53.9753 153.727 56.0241 151.52 59.4913C151.52 59.4913 148.814 63.9294 144.558 63.5091L143.01 53.9753C143.01 53.9753 148.106 53.5025 149.892 53.9753Z" fill="#FD7A5C"/>
<path opacity="0.1" d="M148.419 53.7903C149.654 53.8372 150.801 54.4415 151.538 55.4336C152.221 56.3792 152.628 57.7577 151.525 59.4913C151.525 59.4913 148.819 63.9294 144.563 63.5091L143.015 53.9753C143.015 53.9753 146.202 53.6706 148.419 53.7903Z" fill="black"/>
<path opacity="0.1" d="M160.241 48.9888H161.477C163.638 48.9888 165.39 50.7406 165.39 52.9015V64.1816C165.39 65.2193 164.977 66.2145 164.244 66.9483C163.51 67.6821 162.515 68.0943 161.477 68.0943H160.241V48.9888Z" fill="black"/>
<path d="M160.451 48.9888H161.687C163.848 48.9888 165.6 50.7406 165.6 52.9015V64.1816C165.6 65.2193 165.187 66.2145 164.453 66.9483C163.72 67.6821 162.724 68.0943 161.687 68.0943H160.451V48.9888H160.451Z" fill="#DCE0ED"/>
<path d="M114.948 73.5243C114.948 73.5243 115.938 73.8857 117.26 74.39C119.361 75.1991 122.324 76.38 123.354 77.0272C124.383 77.6745 128.223 78.7377 131.097 79.4858C133.228 80.0379 135.423 80.3084 137.624 80.2906C139.86 80.2696 142.569 80.2486 143.317 80.2486C143.447 80.2475 143.578 80.2574 143.707 80.278C144.493 80.4083 144.462 80.9358 144.443 81.0618V81.0892C139.82 83.8903 134.216 96.4291 133.867 98.5304C133.604 100.106 131.295 104.475 130.156 106.564C129.773 107.264 129.525 107.707 129.525 107.707L130.927 109.317L134.989 111.139L138.841 112.82C138.841 112.82 142.905 113.03 142.974 112.82C143.043 112.61 143.043 110.439 143.043 110.439C142.549 110.12 142.08 109.763 141.64 109.371C140.708 108.56 139.842 107.675 139.051 106.726C136.811 104.063 141.293 98.9507 141.293 98.9507L149.909 87.7442C149.909 87.7442 150.608 86.4834 153.97 81.4401C157.333 76.3968 153.97 73.6651 153.97 73.6651L148.053 71.2086C137.79 67.3673 125.411 64.2888 125.411 64.2888L125.234 64.2657L122.61 63.9379L114.948 73.5243Z" fill="#EFB7B9"/>
<path d="M141.39 111.139C141.39 111.139 142.126 112.006 141.575 112.084C141.025 112.162 139.579 111.849 139.579 111.849L130.411 107.016C130.411 107.016 129.413 106.305 129.177 107.699C128.942 109.092 128.782 108.96 128.782 108.96C128.782 108.96 127.574 111.559 128.782 112.097C129.99 112.635 137.249 114.763 137.249 114.763C137.249 114.763 147.783 117.155 148.781 114.396C149.779 111.637 146.995 112.112 146.995 112.112C146.995 112.112 143.527 111.271 142.344 109.59C142.336 109.59 140.63 110.063 141.39 111.139Z" fill="#444053"/>
<path opacity="0.05" d="M153.962 73.6651L148.045 71.2086C137.782 67.3673 125.403 64.2888 125.403 64.2888L125.226 64.2657L122.601 63.9379L114.948 73.5243C114.948 73.5243 115.938 73.8857 117.26 74.39C119.361 75.1991 122.324 76.38 123.354 77.0272C124.383 77.6745 128.223 78.7377 131.097 79.4858C133.228 80.0379 135.423 80.3084 137.624 80.2906C139.86 80.2696 142.569 80.2486 143.317 80.2486C143.447 80.2475 143.578 80.2574 143.707 80.278C144.493 80.4083 144.462 80.9358 144.443 81.0618V81.0892C139.82 83.8903 134.216 96.4291 133.867 98.5304C133.604 100.106 131.295 104.475 130.156 106.564L130.002 106.846C129.698 106.795 129.317 106.904 129.183 107.699C128.945 109.09 128.788 108.959 128.788 108.959C128.788 108.959 127.58 111.559 128.788 112.097C129.996 112.635 137.248 114.763 137.248 114.763C137.248 114.763 147.782 117.155 148.78 114.396C149.778 111.637 146.994 112.112 146.994 112.112C146.994 112.112 143.527 111.271 142.344 109.59C142.239 109.62 142.136 109.658 142.037 109.703C141.913 109.603 141.781 109.493 141.64 109.371C140.708 108.56 139.842 107.675 139.051 106.726C136.811 104.063 141.293 98.9507 141.293 98.9507L149.909 87.7442C149.909 87.7442 150.608 86.4834 153.97 81.4401C157.333 76.3968 153.962 73.6651 153.962 73.6651Z" fill="black"/>
<path d="M107.893 26.6597L108.212 27.0631L108.391 27.288L109.504 28.6896C109.504 28.6896 112.163 29.5427 114.493 30.0954C116.92 30.6691 118.99 30.9191 117.344 29.5469C116.323 28.6959 116.256 27.2712 116.628 25.7435C116.941 24.5679 117.39 23.4326 117.964 22.3603C118.047 22.2006 118.129 22.0451 118.21 21.8938C118.732 20.9284 119.31 19.9945 119.942 19.0969C118.448 18.0623 116.898 17.1103 115.3 16.2453C113.375 15.2493 111.795 14.8143 112.797 16.7854C113.44 18.0462 113.23 19.4625 112.629 20.8179C112.583 20.9251 112.532 21.028 112.48 21.1394C111.94 22.1897 111.274 23.1699 110.496 24.0582C109.699 24.9934 108.828 25.8633 107.893 26.6597Z" fill="#EFB7B9"/>
<path d="M121.202 58.6697L122.627 59.9704L124.003 65.2658H121.706L119.17 61.9667L121.202 58.6697Z" fill="#444053"/>
<path opacity="0.1" d="M119.17 61.9667L120.704 63.9609L121.706 65.2658H124.003L123.768 64.3602L122.765 60.5021L122.627 59.9704L121.202 58.6697L119.256 61.8259L119.17 61.9667Z" fill="black"/>
<path opacity="0.1" d="M119.17 61.9667L120.704 63.9609L121.706 65.2658H124.003L123.768 64.3602L122.765 60.5021L122.627 59.9704L121.202 58.6697L119.256 61.8259L119.17 61.9667Z" fill="black"/>
<path d="M111.536 75.9008C111.536 75.9008 112.526 76.2622 113.848 76.7666C115.949 77.5756 118.912 78.7566 119.942 79.4038C120.971 80.051 124.81 81.1143 127.685 81.8624C129.816 82.4151 132.01 82.6864 134.212 82.6693C136.448 82.6483 139.156 82.6273 139.904 82.6273C140.035 82.6262 140.166 82.636 140.295 82.6567C141.081 82.787 141.05 83.3144 141.031 83.4405V83.4678C136.408 86.2689 130.803 98.8077 130.455 100.909C130.192 102.485 127.883 106.854 126.744 108.943C126.361 109.642 126.113 110.086 126.113 110.086L127.515 111.695L131.575 113.515L135.426 115.196C135.426 115.196 139.491 115.406 139.56 115.196C139.629 114.986 139.629 112.815 139.629 112.815C139.135 112.496 138.665 112.139 138.226 111.748C137.294 110.936 136.428 110.052 135.637 109.102C133.397 106.44 137.879 101.327 137.879 101.327L146.494 90.1207C146.494 90.1207 147.194 88.8599 150.556 83.8166C153.918 78.7734 150.556 76.0416 150.556 76.0416L145.164 72.9589C136.759 67.8463 124.92 64.9044 124.92 64.9044L124.743 64.8813L122.119 64.5535L111.536 75.9008Z" fill="#EFB7B9"/>
<path opacity="0.1" d="M126.111 110.084L127.513 111.693L131.575 113.515L135.427 115.196C135.427 115.196 139.491 115.406 139.56 115.196C139.629 114.986 139.629 112.815 139.629 112.815C139.135 112.496 138.665 112.139 138.226 111.748C137.791 111.981 137.297 112.418 137.774 113.095C137.774 113.095 138.509 113.961 137.959 114.04C137.408 114.12 135.963 113.805 135.963 113.805L126.794 108.972L126.742 108.936C126.355 109.64 126.111 110.084 126.111 110.084Z" fill="black"/>
<path d="M137.977 113.515C137.977 113.515 138.713 114.381 138.16 114.461C137.607 114.541 136.164 114.223 136.164 114.223L126.998 109.39C126.998 109.39 125.999 108.682 125.762 110.073C125.525 111.464 125.369 111.334 125.369 111.334C125.369 111.334 124.161 113.935 125.369 114.473C126.577 115.011 133.827 117.132 133.827 117.132C133.827 117.132 144.359 119.521 145.357 116.764C146.355 114.007 143.571 114.478 143.571 114.478C143.571 114.478 140.104 113.637 138.923 111.956C138.929 111.964 137.214 112.437 137.977 113.515Z" fill="#444053"/>
<path opacity="0.1" d="M112.095 20.2842C113.309 21.1248 115.163 22.4549 116.745 22.4549C117.153 22.4548 117.561 22.4225 117.964 22.3583C118.549 21.2274 119.21 20.1371 119.941 19.0949C119.941 19.0949 110.695 12.65 112.797 16.7834C113.49 18.1577 112.807 18.8322 112.095 20.2842Z" fill="black"/>
<path d="M109.181 14.4698C109.179 17.0333 110.477 19.4228 112.629 20.8159C112.867 20.9709 113.114 21.1113 113.369 21.2361C116.394 22.7454 120.054 22.0638 122.333 19.5665C124.612 17.0692 124.958 13.3627 123.179 10.4872C121.401 7.61181 117.93 6.26576 114.678 7.19005C111.425 8.11433 109.181 11.0845 109.181 14.4656V14.4698Z" fill="#EFB7B9"/>
<path opacity="0.1" d="M111.536 75.9008C111.536 75.9008 112.526 76.2622 113.848 76.7666C114.678 76.0353 115.529 75.3292 115.884 75.2011C116.655 74.9195 119.177 73.4485 119.107 73.0283C119.038 72.608 120.158 70.9983 121.137 70.7168C122.116 70.4352 121.558 68.9663 121.558 68.9663C121.558 68.9663 123.449 68.2666 123.919 67.2852C124.39 66.3039 125.832 65.0431 125.34 65.1145C125.127 65.0799 124.923 65.0004 124.743 64.8813L122.119 64.5535L111.536 75.9008Z" fill="black"/>
<path d="M105.791 73.3793C105.791 73.3793 109.015 76.0417 109.164 77.2311C109.313 78.4204 111.465 78.3532 111.465 78.3532C111.465 78.3532 114.688 75.2705 115.457 74.991C116.226 74.7115 118.75 73.2385 118.681 72.8182C118.611 72.3979 119.732 70.7883 120.711 70.5067C121.69 70.2251 121.131 68.7563 121.131 68.7563C121.131 68.7563 123.022 68.0565 123.493 67.0752C123.964 66.0939 125.405 64.8331 124.913 64.9045C124.775 64.9234 124.331 64.6944 123.768 64.3602C123.077 63.94 122.201 63.3705 121.486 62.8893C120.73 62.3766 120.152 61.9689 120.152 61.9689C120.152 61.9689 119.822 61.9101 119.257 61.8281C116.208 61.3868 106.276 60.2605 103.971 63.9295C103.664 64.4143 103.434 64.9438 103.288 65.4992C102.257 69.4077 105.791 73.3793 105.791 73.3793Z" fill="#444053"/>
<path opacity="0.1" d="M109.162 64.8855C109.162 64.8855 105.871 66.7431 104.644 66.7431C103.416 66.7431 109.162 64.8855 109.162 64.8855Z" fill="black"/>
<path opacity="0.1" d="M111.359 66.304C111.359 66.304 106.459 67.9514 106.459 69.2459C106.459 70.5403 106.001 65.7786 111.359 66.304Z" fill="black"/>
<path opacity="0.1" d="M123.091 58.8841L123.022 58.9786C123.053 58.9543 123.077 58.9215 123.091 58.8841Z" fill="black"/>
<path opacity="0.1" d="M107.893 26.6597L108.212 27.0632L108.391 27.288L109.504 28.6897C109.504 28.6897 112.163 29.5428 114.493 30.0955C116.92 30.6691 118.99 30.9192 117.344 29.547C116.323 28.696 116.256 27.2712 116.628 25.7435L116.554 25.649C116.554 25.649 116.628 27.0653 115.789 27.0926C114.659 27.1283 114.644 26.748 113.602 26.3088C112.259 25.7414 110.883 24.7937 110.496 24.0562C109.699 24.9921 108.829 25.8627 107.893 26.6597Z" fill="black"/>
<path opacity="0.1" d="M103.288 65.4928C103.861 65.7379 104.507 65.7529 105.091 65.5348C107.262 64.833 110.695 63.1435 112.305 63.8832C113.595 64.4757 118.792 64.4589 120.71 63.9609C121.187 63.8369 121.461 63.6835 121.419 63.5028C121.391 63.2947 121.417 63.083 121.492 62.8871C121.715 62.1747 122.32 61.185 122.772 60.5021L122.633 59.9704L121.208 58.6697L119.263 61.8217C116.214 61.3804 106.283 60.2541 103.977 63.9231C103.668 64.4076 103.435 64.9371 103.288 65.4928Z" fill="black"/>
<path d="M101.87 63.8538C101.87 63.8538 102.71 65.8144 104.881 65.1146C107.052 64.4148 110.485 62.7233 112.095 63.4629C113.704 64.2026 121.412 63.9925 121.202 63.0826C120.992 62.1727 123.093 59.3001 123.093 59.3001C123.093 59.3001 121.946 59.09 121.236 55.3433C121.131 54.7969 121.036 54.1749 120.956 53.4689C120.783 52.0229 120.742 50.5641 120.834 49.1106C121.118 45.055 122.539 43.3991 122.539 43.3991C122.539 43.3991 124.499 41.1591 122.818 38.0764C121.938 36.4605 118.384 31.9825 118.336 29.9862C118.292 28.1748 116.56 26.0692 116.56 26.0692C116.56 26.0692 116.634 27.4856 115.795 27.5129C114.665 27.5486 114.65 27.1682 113.608 26.7291C112.076 26.0818 110.502 24.9408 110.399 24.178C110.399 24.178 103.977 23.8565 102.576 30.3707C101.174 36.8849 101.666 40.4572 101.876 41.2284C102.086 41.9996 103.906 51.9454 102.435 56.1481C100.964 60.3508 101.87 63.8538 101.87 63.8538Z" fill="#A36468"/>
<path opacity="0.1" d="M112.341 52.4098C113.499 54.3637 115.049 56.0571 116.893 57.3837C118.122 57.3939 119.35 57.476 120.57 57.6296C120.465 57.0832 120.36 56.4612 120.29 55.7552C120.117 54.3092 120.076 52.8504 120.169 51.3969C119.76 51.1922 119.46 50.8216 119.345 50.3799C118.994 49.1884 115.869 43.5147 115.869 43.5147C115.869 43.5147 108.559 41.6235 108.304 43.5147C108.05 45.406 110.519 49.2578 112.341 52.4098Z" fill="black"/>
<path d="M114.764 39.9781C114.764 39.9781 119.176 48.3268 119.519 49.5183C119.702 50.1971 120.304 50.6787 121.007 50.7077C121.007 50.7077 125.403 51.7583 126.453 51.8991C127.504 52.0399 136.618 52.809 136.618 52.809C136.618 52.809 138.929 52.8805 139.209 52.0399C139.465 51.2708 143.93 47.2299 146.515 50.756C146.998 51.4175 147.137 52.2699 146.889 53.0507C146.414 54.5637 145.439 56.9655 144.393 55.4714C142.922 53.3701 141.211 53.9606 141.211 55.0806C141.211 56.2006 138.858 55.7845 138.089 55.9421C137.668 56.0283 136.223 56.4129 134.972 56.7491C133.518 57.142 132.027 57.3891 130.524 57.4866C128.042 57.6485 124.384 57.7829 123.087 57.2933C121.524 56.6986 118.794 56.562 117.623 56.5305C117.236 56.5212 116.863 56.387 116.558 56.1481C114.937 54.8785 113.566 53.3187 112.515 51.5482C110.693 48.3962 106.946 41.8693 107.199 39.9781C107.451 38.0869 114.764 39.9781 114.764 39.9781Z" fill="#EFB7B9"/>
<path opacity="0.1" d="M113.293 28.4101C113.293 28.4101 115.657 32.3334 116.752 35.1345C117.846 37.9356 119.177 42.8402 119.177 42.8402L112.591 42.069L112.032 41.1591C112.032 41.1591 107.329 44.101 107.89 45.3618C108.451 46.6226 106.629 43.4706 106.77 39.8983C106.911 36.326 106.264 29.9504 106.77 28.4101C107.277 26.8699 111.744 27.2187 113.293 28.4101Z" fill="black"/>
<path d="M106.778 39.478C106.637 43.0503 108.459 46.2024 107.898 44.9416C107.337 43.6808 112.04 40.7388 112.04 40.7388L112.592 41.6487L119.176 42.4199C119.176 42.4199 117.846 37.5154 116.751 34.7143C116.093 33.1295 115.341 31.5858 114.498 30.0913C113.824 28.8662 113.292 27.9899 113.292 27.9899C112.387 27.2901 110.464 26.8804 108.93 26.977C108.691 26.9906 108.453 27.0194 108.217 27.0632C107.587 27.1872 107.078 27.4267 106.854 27.805C106.819 27.8635 106.791 27.9255 106.77 27.9899C106.265 29.5302 106.912 35.9057 106.778 39.478Z" fill="#A36468"/>
<path opacity="0.1" d="M103.837 49.2577C103.837 49.2577 106.621 53.0927 107.462 53.1977C107.455 53.2061 103.883 52.4097 103.837 49.2577Z" fill="black"/>
<path opacity="0.1" d="M103.837 54.7213C103.837 54.7213 109.09 60.0272 110.771 60.0798C112.452 60.1323 103.837 54.7213 103.837 54.7213Z" fill="black"/>
<path opacity="0.1" d="M103.837 56.936C103.837 56.936 107.199 60.8761 107.409 60.8761C107.619 60.8761 103.778 59.5102 103.837 56.936Z" fill="black"/>
<path opacity="0.1" d="M106.848 27.8049C107.388 27.7244 107.91 27.5494 108.39 27.288C108.571 27.1934 108.749 27.0884 108.924 26.977C109.613 26.5159 110.255 25.988 110.84 25.401C111.807 24.4617 112.771 23.4362 113.171 22.1481C113.26 21.8512 113.326 21.5476 113.368 21.2403C113.608 19.6243 113.406 17.8403 114.562 16.7413C114.779 16.5363 115.028 16.3681 115.299 16.2433C116.938 15.4636 119.315 15.968 120.538 14.5622C121.316 13.6712 121.297 12.4335 121.893 11.4648C122.154 11.0445 122.633 10.681 123.058 10.2943C121.366 7.71926 118.282 6.4273 115.26 7.02795C112.238 7.62859 109.883 10.0018 109.304 13.028C108.726 16.0542 110.041 19.1287 112.628 20.8011C112.582 20.9083 112.532 21.0112 112.479 21.1226C111.036 24.0645 107.892 26.645 107.892 26.645L108.211 27.0484C107.575 27.1934 107.073 27.4267 106.848 27.8049Z" fill="black"/>
<path d="M120.118 14.3563C118.696 15.9869 115.706 15.0371 114.14 16.5312C112.766 17.8403 113.312 20.1245 112.751 21.938C112.352 23.2261 111.387 24.2495 110.421 25.1909C109.013 26.561 107.212 27.9521 105.287 27.5591C104.146 27.3258 103.028 26.4727 101.925 26.8657C101.376 27.0632 100.983 27.5381 100.574 27.9563C99.1817 29.3747 97.3725 30.3106 95.4106 30.6271C95.0226 30.7146 94.6182 30.6957 94.2401 30.5724C93.6517 30.3329 93.3344 29.6899 92.7986 29.3474C91.7479 28.6749 90.3988 29.3642 89.3082 29.9652C83.1381 33.306 75.8293 33.8319 69.2444 31.4088L70.9444 30.5682C70.583 29.8307 69.6059 29.6689 68.9839 29.1288C67.702 28.0172 68.4564 25.794 69.8118 24.7748C71.1672 23.7556 72.9218 23.4005 74.3255 22.4486C74.6113 22.2553 74.9013 21.9989 74.9286 21.6564C74.924 21.4048 74.8442 21.1604 74.6996 20.9545C73.9515 19.637 73.1236 18.2228 73.2917 16.7161C73.548 14.4046 76.0718 12.9841 78.3896 12.8223C80.7074 12.6605 83.002 13.3581 85.324 13.398C86.1646 13.4127 87.0451 13.3308 87.7658 12.8958C88.7724 12.2906 89.2788 11.137 89.8903 10.1346C90.9818 8.35492 92.5458 6.9131 94.4082 5.96973C96.5096 4.90854 98.8883 4.5366 101.074 3.65823C103.305 2.76305 105.335 1.34674 107.67 0.777269C111.059 -0.0632745 114.691 1.03574 117.618 2.93537C119.028 3.84946 123.531 6.78296 123.502 8.65947C123.478 9.77319 122.031 10.3763 121.482 11.2504C120.877 12.2276 120.896 13.4653 120.118 14.3563Z" fill="#965D7B"/>
<g opacity="0.1">
<path d="M74.4934 19.9017C74.6371 20.1081 74.7167 20.3522 74.7225 20.6036C74.7141 20.6922 74.6892 20.7785 74.6489 20.8579C74.0311 19.7694 73.3881 18.6157 73.2852 17.4011C73.5583 18.269 74.0395 19.1032 74.4934 19.9017Z" fill="black"/>
<path d="M68.7769 28.076C69.3968 28.616 70.3739 28.7778 70.7375 29.5154L70.1365 29.8138C69.7315 29.6234 69.3465 29.3932 68.987 29.1267C68.5251 28.715 68.2824 28.1108 68.3314 27.4939C68.4385 27.7163 68.5902 27.9145 68.7769 28.076Z" fill="black"/>
<path d="M89.1017 28.9144C90.1923 28.3135 91.5435 27.6242 92.5921 28.2966C93.1258 28.6392 93.4452 29.2822 94.0336 29.5217C94.411 29.645 94.8147 29.6639 95.2019 29.5764C97.1645 29.2599 98.9744 28.324 100.367 26.9055C100.775 26.4853 101.168 26.0125 101.718 25.8149C102.815 25.422 103.933 26.2751 105.08 26.5084C107.005 26.9013 108.804 25.5102 110.214 24.1402C111.181 23.2008 112.143 22.1754 112.542 20.8872C113.106 19.0738 112.559 16.7896 113.933 15.4804C115.503 13.9864 118.487 14.9362 119.912 13.3055C120.687 12.4146 120.67 11.1769 121.267 10.2081C121.772 9.39071 123.079 8.81073 123.263 7.8252C123.408 8.08245 123.488 8.37084 123.497 8.66574C123.474 9.77946 122.026 10.3826 121.477 11.2567C120.881 12.2254 120.897 13.4631 120.122 14.3541C118.697 15.9848 115.709 15.035 114.144 16.529C112.769 17.8382 113.316 20.1224 112.752 21.9358C112.353 23.224 111.391 24.2473 110.424 25.1887C109.014 26.5588 107.215 27.9499 105.291 27.557C104.147 27.3237 103.03 26.4706 101.928 26.8635C101.378 27.061 100.985 27.5359 100.577 27.9541C99.1845 29.3726 97.3746 30.3085 95.4121 30.6249C95.0248 30.7125 94.6211 30.6936 94.2437 30.5703C93.6553 30.3308 93.3359 29.6877 92.8022 29.3452C91.7515 28.6728 90.4024 29.362 89.3118 29.963C83.1417 33.3038 75.8329 33.8297 69.248 31.4067L70.4227 30.8246C76.6553 32.697 83.3771 32.0096 89.1017 28.9144Z" fill="black"/>
</g>
<path opacity="0.1" d="M141.03 83.4384L142.798 82.5832V82.2491C142.798 82.1209 141.388 82.4046 140.295 82.6462C141.081 82.7849 141.049 83.3123 141.03 83.4384Z" fill="black"/>
<path d="M142.567 64.1143C144.918 64.1143 146.824 61.7952 146.824 58.9345C146.824 56.0737 144.918 53.7546 142.567 53.7546C140.216 53.7546 138.31 56.0737 138.31 58.9345C138.31 61.7952 140.216 64.1143 142.567 64.1143Z" fill="#FD7A5C"/>
<path d="M101.59 52.1934L94.7463 58.9429L72.2471 58.55L78.4335 52.1934H101.59Z" fill="#DDA2A6"/>
<path d="M101.59 75.2831V52.1934L94.7461 58.9429V81.5367L101.59 75.2831Z" fill="#B77B7F"/>
<path d="M72.2471 58.5499V81.5367H94.7463V58.9429L72.2471 58.5499Z" fill="#DDA2A6"/>
<path opacity="0.3" d="M72.2471 58.5499V81.5367H94.7463V58.9429L72.2471 58.5499Z" fill="white"/>
<path d="M92.9182 65.2701L76.1851 62.3976L74.0039 73.3835L91.2309 76.5481L92.9182 65.2701Z" fill="#DCE0ED"/>
<path d="M89.6122 67.8358L78.3636 66.0686L78.082 67.5354L89.3306 69.4434L89.6122 67.8358Z" fill="#FD7A5C"/>
<path d="M86.5191 70.9732L80.1204 70.0444L79.8389 71.673L86.5191 72.6102V70.9732Z" fill="#FD7A5C"/>
<path d="M98.8223 64.3119L98.5176 55.2214L96.7588 56.9572L97.0656 66.0687L98.8223 64.3119Z" fill="#65617D"/>
<path d="M76.1704 54.5195L97.7913 54.8116L98.5184 55.2214L96.7596 56.9571L96.1523 56.5999L74.7373 55.9926L76.1704 54.5195Z" fill="#65617D"/>
</svg>
