<svg width="183" height="140" viewBox="0 0 183 140" fill="white" xmlns="http://www.w3.org/2000/svg">
<path opacity="0.1" fill-rule="evenodd" clip-rule="evenodd" d="M172.006 26.2678C175.002 29.7236 177.447 33.6203 179.255 37.8208L14.4794 39.2243C18.6569 18.6967 37.2808 3.21539 59.6324 3.21539C67.1216 3.20174 74.5052 4.98192 81.1654 8.40698C98.2775 -3.46919 121.158 -2.69505 137.428 10.3106C143.187 10.3837 148.883 11.5134 154.234 13.6436L71.4104 25.2762L172.006 26.2678ZM179.659 38.7882C181.734 43.9542 182.798 49.4707 182.793 55.0379C182.793 55.2594 182.789 55.4809 182.786 55.7024H113.045L181.322 66.2915C177.383 81.0616 165.875 92.8673 151.06 97.5692C143.676 112.694 127.819 123.155 109.446 123.155C97.0638 123.155 85.824 118.403 77.5503 110.676C69.3026 118.259 58.1701 122.909 45.9197 122.909C21.5832 122.909 1.66131 104.559 0 81.3195L55.2282 75.4512L1.2356 67.4043C2.15236 63.8067 3.52298 60.3403 5.31446 57.0886L179.659 38.7882Z"/>
<path opacity="0.1" d="M4.86453 128.466C7.33226 128.466 9.33276 128.191 9.33276 127.852C9.33276 127.512 7.33226 127.237 4.86453 127.237C2.39679 127.237 0.396294 127.512 0.396294 127.852C0.396294 128.191 2.39679 128.466 4.86453 128.466Z" fill="#FD7A5C"/>
<path opacity="0.1" d="M21.9812 130.202C24.4489 130.202 26.4494 129.927 26.4494 129.587C26.4494 129.248 24.4489 128.973 21.9812 128.973C19.5135 128.973 17.513 129.248 17.513 129.587C17.513 129.927 19.5135 130.202 21.9812 130.202Z" fill="#FD7A5C"/>
<path opacity="0.1" d="M42.1436 127.852C44.6114 127.852 46.6119 127.577 46.6119 127.237C46.6119 126.898 44.6114 126.623 42.1436 126.623C39.6759 126.623 37.6754 126.898 37.6754 127.237C37.6754 127.577 39.6759 127.852 42.1436 127.852Z" fill="#FD7A5C"/>
<path opacity="0.1" d="M15.13 134.966C16.8848 134.966 18.3073 134.771 18.3073 134.53C18.3073 134.289 16.8848 134.094 15.13 134.094C13.3753 134.094 11.9528 134.289 11.9528 134.53C11.9528 134.771 13.3753 134.966 15.13 134.966Z" fill="#FD7A5C"/>
<path opacity="0.1" d="M32.8974 134.53C34.6522 134.53 36.0747 134.335 36.0747 134.094C36.0747 133.853 34.6522 133.658 32.8974 133.658C31.1427 133.658 29.7201 133.853 29.7201 134.094C29.7201 134.335 31.1427 134.53 32.8974 134.53Z" fill="#FD7A5C"/>
<path d="M22.0781 129.449C22.0781 129.449 15.8101 108.904 23.0576 100.675C28.4811 94.5182 34.6349 95.2554 37.3916 96.0168C38.8352 96.4015 40.0373 97.4005 40.6796 98.7493C41.6435 100.826 41.4687 104.202 34.666 108.141C23.2757 114.736 22.5679 123.781 22.5679 123.781L22.0781 129.449Z" fill="#FD7A5C"/>
<path d="M36.4104 98.931C36.4104 98.931 17.9352 104.708 22.0781 129.449" stroke="#565987"/>
<path d="M25.6205 101.002C25.6205 101.002 28.1644 102.716 27.3511 105.292" stroke="#565987"/>
<path d="M34.557 102.525C34.557 102.525 32.9995 100.944 31.1098 101.816" stroke="#565987"/>
<path d="M27.2541 110.486C27.2541 110.486 24.5234 109.101 23.8173 110.832" stroke="#565987"/>
<path d="M20.4964 113.372C20.4964 113.372 22.5471 113.21 22.5852 114.191" stroke="#565987"/>
<path d="M21.8289 129.613C21.8289 129.613 29.1698 114.681 31.1859 115.008C32.1429 115.163 32.5842 116.105 32.7849 117.051C33.0337 118.278 32.894 119.552 32.3852 120.696C31.3468 123.075 28.5399 127.618 21.8289 129.613Z" fill="#FD7A5C"/>
<path d="M31.1253 117.842C31.1253 117.842 23.421 129.015 21.9328 129.504" stroke="#565987"/>
<path d="M31.8349 119.585H30.0368" stroke="#565987"/>
<path d="M29.6803 123.672L26.863 123.794" stroke="#565987"/>
<path d="M27.9654 120.403L28.2717 121.871" stroke="#565987"/>
<path d="M24.9681 124.872L25.0235 126.206" stroke="#565987"/>
<path d="M22.0418 129.613C22.0418 129.613 14.7009 114.681 12.6848 115.008C11.7278 115.163 11.2865 116.105 11.0858 117.051C10.839 118.275 10.9793 119.545 11.4873 120.685C12.5273 123.075 15.3256 127.618 22.0418 129.613Z" fill="#FD7A5C"/>
<path d="M12.7402 117.842C12.7402 117.842 20.4445 129.015 21.9328 129.504" stroke="#565987"/>
<path d="M12.0324 119.585H13.8304" stroke="#565987"/>
<path d="M14.1852 123.672L17.0042 123.794" stroke="#565987"/>
<path d="M15.9019 120.403L15.5956 121.871" stroke="#565987"/>
<path d="M18.8991 124.872L18.8438 126.206" stroke="#565987"/>
<path d="M34.6452 133.1C34.8454 132.938 34.9914 132.718 35.064 132.471C35.1303 132.214 35.0084 131.947 34.7716 131.828C34.5033 131.725 34.2161 131.912 33.9998 132.098C33.7834 132.285 33.5325 132.502 33.2487 132.462C33.5434 132.191 33.6746 131.785 33.5948 131.392C33.5829 131.312 33.5494 131.237 33.4979 131.174C33.3491 131.015 33.0791 131.084 32.9009 131.209C32.3332 131.607 32.1758 132.377 32.1723 133.071C32.1411 132.817 32.1377 132.56 32.1619 132.304C32.1619 132.048 32.0892 131.763 31.8729 131.626C31.7391 131.552 31.5877 131.517 31.4351 131.522C31.179 131.522 30.8969 131.538 30.7221 131.725C30.5058 131.957 30.5612 132.344 30.7498 132.6C30.9602 132.837 31.2095 133.037 31.487 133.19C31.6951 133.317 31.8724 133.489 32.0062 133.692C32.0217 133.721 32.0344 133.751 32.0443 133.782H33.6415C34.0058 133.602 34.3435 133.373 34.6452 133.1Z" fill="#FD7A5C"/>
<path d="M6.67466 127.087C6.87499 126.924 7.02106 126.705 7.09345 126.457C7.15921 126.2 7.03754 125.932 6.80099 125.813C6.53276 125.711 6.24722 125.898 6.02917 126.085C5.81112 126.272 5.56366 126.486 5.27812 126.446C5.57367 126.176 5.70512 125.77 5.62423 125.377C5.61125 125.297 5.57719 125.223 5.52559 125.161C5.37676 125.002 5.1068 125.069 4.92855 125.195C4.36094 125.593 4.20346 126.363 4.2 127.057C4.16882 126.802 4.16534 126.545 4.18962 126.289C4.18962 126.033 4.11866 125.749 3.90235 125.612C3.76785 125.539 3.61599 125.503 3.46279 125.509C3.20841 125.498 2.9246 125.524 2.74981 125.711C2.5335 125.943 2.59061 126.331 2.7775 126.576C2.98765 126.815 3.23769 127.015 3.51644 127.168C3.72501 127.294 3.90247 127.466 4.0356 127.67C4.05125 127.699 4.06456 127.729 4.0754 127.76H5.67268C6.03565 127.582 6.37273 127.356 6.67466 127.087Z" fill="#FD7A5C"/>
<path d="M15.997 133.1C16.1972 132.938 16.3432 132.718 16.4158 132.471C16.4821 132.214 16.3601 131.947 16.1234 131.828C15.8551 131.725 15.5679 131.912 15.3515 132.098C15.1352 132.285 14.8843 132.502 14.6005 132.462C14.8951 132.191 15.0264 131.785 14.9466 131.392C14.9347 131.312 14.9012 131.237 14.8497 131.174C14.7009 131.015 14.4309 131.084 14.2527 131.209C13.685 131.607 13.5276 132.377 13.5241 133.071C13.4929 132.817 13.4894 132.56 13.5137 132.304C13.5137 132.048 13.4428 131.763 13.2264 131.626C13.0919 131.553 12.9401 131.517 12.7869 131.522C12.5325 131.522 12.2487 131.538 12.0739 131.725C11.8576 131.957 11.913 132.344 12.1016 132.6C12.312 132.837 12.5613 133.037 12.8388 133.19C13.0469 133.317 13.2242 133.489 13.358 133.692C13.3735 133.721 13.3862 133.751 13.396 133.782H14.9933C15.3576 133.602 15.6953 133.373 15.997 133.1Z" fill="#FD7A5C"/>
<path d="M42.4344 120.943C42.4344 120.943 43.0331 121.727 42.1575 122.909C41.2818 124.091 40.5619 125.09 40.8527 125.827C40.8527 125.827 42.1731 123.631 43.2477 123.6C44.3224 123.569 43.6163 122.264 42.4344 120.943Z" fill="#FD7A5C"/>
<path opacity="0.1" d="M42.4344 120.943C42.4865 121.019 42.5279 121.102 42.5572 121.189C43.6059 122.421 44.1632 123.57 43.156 123.6C42.2163 123.627 41.0915 125.306 40.8215 125.73C40.8302 125.763 40.8405 125.794 40.8527 125.827C40.8527 125.827 42.173 123.631 43.2477 123.6C44.3224 123.569 43.6163 122.264 42.4344 120.943Z" fill="black"/>
<path d="M43.5471 121.942C43.5471 122.217 43.5159 122.44 43.4779 122.44C43.4398 122.44 43.4086 122.217 43.4086 121.942C43.4086 121.667 43.4484 121.797 43.4865 121.797C43.5246 121.797 43.5471 121.667 43.5471 121.942Z" fill="#FFD037"/>
<path d="M43.9295 122.271C43.6873 122.402 43.4761 122.482 43.4588 122.444C43.4415 122.406 43.6215 122.271 43.8638 122.144C44.1061 122.018 44.0091 122.108 44.0282 122.144C44.0472 122.181 44.1718 122.139 43.9295 122.271Z" fill="#FFD037"/>
<path d="M39.271 120.943C39.271 120.943 38.6722 121.727 39.5478 122.909C40.4235 124.091 41.1451 125.09 40.8527 125.827C40.8527 125.827 39.5323 123.631 38.4576 123.6C37.3829 123.569 38.0959 122.264 39.271 120.943Z" fill="#FD7A5C"/>
<path opacity="0.1" d="M39.271 120.943C39.219 121.019 39.1782 121.102 39.1498 121.189C38.1011 122.421 37.5421 123.57 38.5493 123.6C39.489 123.627 40.6156 125.306 40.8855 125.73C40.8752 125.763 40.8648 125.794 40.8527 125.827C40.8527 125.827 39.5323 123.631 38.4576 123.6C37.3829 123.569 38.0959 122.264 39.271 120.943Z" fill="black"/>
<path d="M38.1582 121.942C38.1582 122.217 38.1894 122.44 38.2274 122.44C38.2655 122.44 38.2967 122.217 38.2967 121.942C38.2967 121.667 38.2586 121.797 38.2205 121.797C38.1824 121.797 38.1582 121.667 38.1582 121.942Z" fill="#FFD037"/>
<path d="M37.7758 122.271C38.018 122.402 38.2292 122.482 38.2482 122.444C38.2672 122.406 38.0838 122.271 37.8433 122.144C37.6027 122.018 37.6962 122.108 37.6702 122.144C37.6443 122.181 37.5352 122.139 37.7758 122.271Z" fill="#FFD037"/>
<path d="M38.3486 125.723C38.3486 125.723 40.0237 125.673 40.5273 125.313C41.0309 124.953 43.1023 124.524 43.2287 125.1C43.355 125.676 45.7431 127.966 43.8534 127.981C41.9637 127.997 39.463 127.687 38.9595 127.381C38.4559 127.075 38.3486 125.723 38.3486 125.723Z" fill="#A8A8A8"/>
<path opacity="0.2" d="M43.888 127.781C41.9983 127.796 39.4959 127.487 38.9923 127.18C38.6082 126.947 38.4559 126.109 38.4057 125.721H38.3486C38.3486 125.721 38.4559 127.073 38.9595 127.379C39.463 127.686 41.9637 127.995 43.8534 127.98C44.4002 127.98 44.5871 127.781 44.5768 127.493C44.4989 127.67 44.293 127.777 43.888 127.781Z" fill="black"/>
<path opacity="0.1" d="M105.976 139.983C137.46 139.983 162.983 138.825 162.983 137.397C162.983 135.969 137.46 134.812 105.976 134.812C74.4918 134.812 48.9688 135.969 48.9688 137.397C48.9688 138.825 74.4918 139.983 105.976 139.983Z"/>
<path d="M100.168 60.0997C100.168 60.0997 103.802 66.9751 104.085 67.9563C104.235 68.5153 104.731 68.9119 105.31 68.9358C105.31 68.9358 108.93 69.801 109.795 69.917C110.661 70.0329 118.161 70.6663 118.161 70.6663C118.161 70.6663 120.064 70.7251 120.294 70.0329C120.506 69.3996 124.183 66.0717 126.311 68.9756C126.71 69.5204 126.824 70.2223 126.62 70.8653C126.228 72.1113 125.425 74.0893 124.564 72.8589C123.352 71.1284 121.944 71.6146 121.944 72.537C121.944 73.4594 120.005 73.1167 119.372 73.2465C119.026 73.3175 117.835 73.6342 116.806 73.9111C115.611 74.2341 114.386 74.4376 113.151 74.5185C111.107 74.6517 108.094 74.7625 107.026 74.3593C105.737 73.8695 103.489 73.757 102.527 73.7311C102.208 73.7234 101.901 73.6129 101.65 73.4161C100.314 72.3707 99.1845 71.0862 98.3184 69.628C96.818 67.0322 93.7325 61.6572 93.9402 60.0997C94.1478 58.5422 100.168 60.0997 100.168 60.0997Z" fill="#EFB7B9"/>
<path opacity="0.05" d="M100.168 60.0997C100.168 60.0997 103.802 66.9751 104.085 67.9563C104.235 68.5153 104.731 68.9119 105.31 68.9358C105.31 68.9358 108.93 69.801 109.795 69.917C110.661 70.0329 118.161 70.6663 118.161 70.6663C118.161 70.6663 120.064 70.7251 120.294 70.0329C120.506 69.3996 124.183 66.0717 126.311 68.9756C126.71 69.5204 126.824 70.2223 126.62 70.8653C126.228 72.1113 125.425 74.0893 124.564 72.8589C123.352 71.1284 121.944 71.6146 121.944 72.537C121.944 73.4594 120.005 73.1167 119.372 73.2465C119.026 73.3175 117.835 73.6342 116.806 73.9111C115.611 74.2341 114.386 74.4376 113.151 74.5185C111.107 74.6517 108.094 74.7625 107.026 74.3593C105.737 73.8695 103.489 73.757 102.527 73.7311C102.208 73.7234 101.901 73.6129 101.65 73.4161C100.314 72.3707 99.1845 71.0862 98.3184 69.628C96.818 67.0322 93.7325 61.6572 93.9402 60.0997C94.1478 58.5422 100.168 60.0997 100.168 60.0997Z" fill="black"/>
<path d="M156.016 124.503C156.003 132.143 149.978 138.418 142.345 138.742C134.713 139.067 128.177 133.325 127.516 125.714C127.495 125.483 127.48 125.251 127.473 125.022V125.01C127.466 124.838 127.462 124.665 127.462 124.491C127.462 116.606 133.854 110.214 141.739 110.214C149.624 110.214 156.016 116.606 156.016 124.491V124.503Z" fill="#77829E"/>
<path d="M141.739 132.282C146.04 132.282 149.527 128.795 149.527 124.494C149.527 120.194 146.04 116.707 141.739 116.707C137.438 116.707 133.952 120.194 133.952 124.494C133.952 128.795 137.438 132.282 141.739 132.282Z" fill="#DCE0ED"/>
<path d="M141.739 129.167C144.32 129.167 146.412 127.075 146.412 124.494C146.412 121.914 144.32 119.822 141.739 119.822C139.159 119.822 137.067 121.914 137.067 124.494C137.067 127.075 139.159 129.167 141.739 129.167Z" fill="#77829F"/>
<path d="M104.245 97.3821L69.8668 98.0744V93.0074C70.1748 88.9285 74.3661 87.4973 78.1733 87.0491C81.1498 86.7112 84.1633 86.9373 87.0561 87.7154C94.3503 89.6467 98.9968 90.0205 101.286 90.0568C102.322 90.0724 103.205 90.8143 103.398 91.8323C103.507 92.4121 103.614 93.0437 103.714 93.6667C103.79 94.1547 103.863 94.6358 103.929 95.084C104.119 96.375 104.245 97.3821 104.245 97.3821Z" fill="#77829F"/>
<path d="M131.673 125.417H60.2554C59.1282 125.428 58.1031 124.766 57.6509 123.733C57.1127 122.447 57.8655 121.627 58.6685 121.146C60.3118 120.172 61.5574 118.648 62.1849 116.844C62.9464 114.594 63.6905 111.074 63.9829 105.575C64.2841 99.8863 66.3434 97.0742 68.5689 95.7105C71.4433 93.9523 74.5946 94.6116 74.5946 94.6116L103.552 94.8435C104.067 95.0773 104.544 95.3883 104.965 95.7659C107.546 98.1679 103.783 101.304 103.783 101.304C95.7071 109.84 101.821 118.493 101.821 118.493H116.638C119.406 118.507 122.113 117.679 124.399 116.117C126.401 114.733 127.168 113.395 127.476 112.585C127.705 111.965 127.936 111.348 128.213 110.749C132.1 102.319 127.412 88.6067 125.389 83.4791C124.887 82.2037 124.55 81.4596 124.55 81.4596L129.196 81.1135L132.138 80.8903H132.168C138.643 92.0591 141.05 103.536 141.859 112.04C141.935 112.841 141.997 113.618 142.047 114.364C142.232 117.23 141.222 120.045 139.256 122.14C137.291 124.234 134.545 125.42 131.673 125.417Z" fill="#FD7A5C"/>
<path opacity="0.1" d="M103.931 95.0841H69.8668V93.6667H103.716C103.792 94.1461 103.865 94.6272 103.931 95.0841Z" fill="black"/>
<path opacity="0.1" d="M104.967 95.7762H68.844C68.7501 95.7765 68.657 95.7577 68.5706 95.7208C71.445 93.9626 74.5963 94.622 74.5963 94.622L103.553 94.8538C104.069 95.0876 104.545 95.3987 104.967 95.7762Z" fill="black"/>
<rect x="55.4964" y="94.0042" width="50.4796" height="1.41731" rx="0.708653" fill="#DCE0ED"/>
<path opacity="0.1" d="M141.859 112.043C140.213 113.833 139.001 114.537 139.059 112.649C139.232 106.938 129.195 81.1186 129.195 81.1186L132.162 80.8937C138.64 92.0539 141.049 103.531 141.859 112.043Z" fill="black"/>
<path opacity="0.1" d="M155.93 122.93C154.225 123.338 152.122 123.754 149.527 124.141C148.561 124.283 147.523 124.419 146.412 124.55C143.759 124.865 140.69 125.14 137.146 125.351C136.143 125.411 135.1 125.466 134.019 125.515C131.995 125.608 129.827 125.678 127.518 125.727L127.474 125.034V125.022C130.702 123.719 135.781 120.243 136.598 111.187C140.732 109.594 145.371 110.009 149.156 112.311C152.941 114.613 155.444 118.541 155.931 122.944L155.93 122.93Z" fill="black"/>
<path d="M124.782 125.417C124.782 125.417 141.17 123.638 135.525 98.668C135.525 98.668 143.622 106.092 148.66 110.218C153.697 114.343 162.677 120.031 162.677 120.031C162.677 120.031 157.316 125.041 124.782 125.417Z" fill="#FD7A5C"/>
<path opacity="0.1" d="M124.782 125.417C124.782 125.417 141.17 123.638 135.525 98.668C135.525 98.668 143.622 106.092 148.66 110.218C153.697 114.343 162.677 120.031 162.677 120.031C162.677 120.031 157.316 125.041 124.782 125.417Z" fill="white"/>
<path d="M80.9993 138.771C88.8842 138.771 95.2762 132.379 95.2762 124.494C95.2762 116.61 88.8842 110.218 80.9993 110.218C73.1144 110.218 66.7224 116.61 66.7224 124.494C66.7224 132.379 73.1144 138.771 80.9993 138.771Z" fill="#77829E"/>
<path d="M80.9993 132.282C85.3001 132.282 88.7867 128.795 88.7867 124.494C88.7867 120.194 85.3001 116.707 80.9993 116.707C76.6984 116.707 73.2119 120.194 73.2119 124.494C73.2119 128.795 76.6984 132.282 80.9993 132.282Z" fill="#DCE0ED"/>
<path d="M80.9992 129.167C83.5798 129.167 85.6717 127.075 85.6717 124.494C85.6717 121.914 83.5798 119.822 80.9992 119.822C78.4187 119.822 76.3268 121.914 76.3268 124.494C76.3268 127.075 78.4187 129.167 80.9992 129.167Z" fill="#77829F"/>
<path opacity="0.1" d="M97.0067 120.206C97.0067 110.988 89.6848 103.513 80.6531 103.513C71.6215 103.513 64.2996 110.988 64.2996 120.206C64.2996 120.596 64.3129 120.982 64.3394 121.364H96.9669C96.9934 120.982 97.0067 120.596 97.0067 120.206Z" fill="black"/>
<path d="M96.401 119.919C96.401 111.041 89.3508 103.844 80.6531 103.844C71.9555 103.844 64.9053 111.041 64.9053 119.919C64.9053 120.294 64.9191 120.665 64.9434 121.033H96.3629C96.3871 120.665 96.401 120.294 96.401 119.919Z" fill="#FD7A5C"/>
<path opacity="0.1" d="M96.401 119.919C96.401 120.177 96.401 120.438 96.3819 120.687C96.3819 120.803 96.3698 120.917 96.3629 121.033H64.9434C64.9434 120.917 64.9295 120.803 64.9243 120.687C64.9122 120.433 64.9053 120.168 64.9053 119.919C64.9053 111.041 71.9555 103.844 80.6531 103.844C89.3508 103.844 96.401 111.041 96.401 119.919Z" fill="white"/>
<path opacity="0.1" d="M96.3819 120.696C96.3819 120.812 96.3698 120.926 96.3629 121.042H64.9434C64.9434 120.926 64.9295 120.812 64.9243 120.696H96.3819Z" fill="black"/>
<rect opacity="0.1" x="58.0161" y="121.38" width="42.308" height="3.69122" rx="1.84561" fill="black"/>
<rect x="58.0161" y="121.033" width="42.308" height="3.69122" rx="1.84561" fill="#DCE0ED"/>
<path opacity="0.1" d="M139.042 96.9589C140.085 96.4872 139.968 93.9755 138.781 91.349C137.593 88.7225 135.785 86.9757 134.741 87.4474C133.698 87.9191 133.815 90.4307 135.003 93.0573C136.19 95.6838 137.999 97.4306 139.042 96.9589Z" fill="black"/>
<path d="M139.215 96.7853C140.258 96.3136 140.141 93.8019 138.954 91.1754C137.766 88.5489 135.958 86.8021 134.914 87.2738C133.871 87.7455 133.988 90.2571 135.176 92.8837C136.363 95.5102 138.172 97.257 139.215 96.7853Z" fill="#DCE0ED"/>
<path opacity="0.1" d="M132.136 80.8937V83.6054H126.858C126.367 83.6059 125.876 83.5666 125.391 83.4877C124.889 82.2123 124.552 81.4682 124.552 81.4682L129.198 81.1221L132.136 80.8937Z" fill="black"/>
<path d="M132.136 83.2524H126.858C122.222 83.2524 118.465 79.7913 118.465 75.5048V74.7866C118.465 70.5088 122.222 67.0408 126.858 67.0408L132.136 67.5201V83.2524Z" fill="#FD7A5C"/>
<path d="M123.441 71.6267C123.441 71.6267 126.599 73.3139 124.782 76.1693C124.782 76.1693 122.553 79.8242 119.048 79.4781L117.773 71.6267C117.773 71.6267 121.97 71.2373 123.441 71.6267Z" fill="#FD7A5C"/>
<path opacity="0.1" d="M122.227 71.4744C123.244 71.513 124.189 72.0107 124.796 72.8277C125.358 73.6064 125.694 74.7416 124.785 76.1693C124.785 76.1693 122.556 79.8242 119.052 79.4781L117.777 71.6267C117.777 71.6267 120.402 71.3757 122.227 71.4744Z" fill="black"/>
<path opacity="0.1" d="M131.963 67.5201H132.981C134.761 67.5201 136.203 68.9628 136.203 70.7424V80.0319C136.203 80.8865 135.864 81.7061 135.259 82.3104C134.655 82.9146 133.836 83.2541 132.981 83.2541H131.963V67.5201Z" fill="black"/>
<path d="M132.136 67.5201H133.154C134.934 67.5201 136.376 68.9628 136.376 70.7424V80.0319C136.376 80.8865 136.037 81.7061 135.432 82.3104C134.828 82.9146 134.009 83.2541 133.154 83.2541H132.136V67.5201H132.136Z" fill="#DCE0ED"/>
<path d="M94.6635 87.7259C94.6635 87.7259 95.4786 88.0235 96.5671 88.4388C98.2977 89.1051 100.738 90.0777 101.586 90.6107C102.434 91.1437 105.595 92.0193 107.963 92.6354C109.718 93.09 111.525 93.3128 113.338 93.2982C115.179 93.2809 117.41 93.2636 118.026 93.2636C118.133 93.2627 118.241 93.2708 118.348 93.2878C118.995 93.3951 118.969 93.8294 118.953 93.9333V93.9558C115.146 96.2626 110.531 106.589 110.244 108.319C110.027 109.617 108.125 113.215 107.187 114.935C106.872 115.511 106.668 115.876 106.668 115.876L107.823 117.202L111.168 118.702L114.34 120.087C114.34 120.087 117.687 120.26 117.744 120.087C117.801 119.914 117.801 118.126 117.801 118.126C117.393 117.863 117.007 117.569 116.645 117.247C115.877 116.579 115.164 115.85 114.513 115.068C112.668 112.876 116.359 108.665 116.359 108.665L123.454 99.4364C123.454 99.4364 124.031 98.398 126.8 94.2448C129.568 90.0915 126.8 87.8418 126.8 87.8418L121.926 85.8188C113.474 82.6554 103.28 80.1202 103.28 80.1202L103.134 80.1011L100.973 79.8312L94.6635 87.7259Z" fill="#EFB7B9"/>
<path d="M116.439 118.702C116.439 118.702 117.044 119.417 116.591 119.481C116.138 119.545 114.947 119.287 114.947 119.287L107.397 115.307C107.397 115.307 106.575 114.722 106.381 115.869C106.187 117.017 106.056 116.908 106.056 116.908C106.056 116.908 105.061 119.048 106.056 119.491C107.051 119.934 113.028 121.688 113.028 121.688C113.028 121.688 121.703 123.657 122.525 121.385C123.347 119.112 121.054 119.504 121.054 119.504C121.054 119.504 118.199 118.811 117.224 117.427C117.218 117.427 115.812 117.816 116.439 118.702Z" fill="#444053"/>
<path opacity="0.05" d="M126.793 87.8418L121.919 85.8188C113.467 82.6554 103.273 80.1202 103.273 80.1202L103.128 80.1011L100.966 79.8312L94.6635 87.7259C94.6635 87.7259 95.4786 88.0235 96.5671 88.4388C98.2977 89.1051 100.738 90.0777 101.586 90.6107C102.434 91.1437 105.595 92.0193 107.963 92.6354C109.718 93.09 111.525 93.3128 113.338 93.2982C115.179 93.2809 117.41 93.2636 118.026 93.2636C118.133 93.2627 118.241 93.2708 118.348 93.2878C118.995 93.3951 118.969 93.8294 118.953 93.9333V93.9558C115.146 96.2626 110.531 106.589 110.244 108.319C110.027 109.617 108.125 113.215 107.187 114.935L107.061 115.167C106.81 115.125 106.497 115.215 106.386 115.869C106.191 117.015 106.061 116.908 106.061 116.908C106.061 116.908 105.066 119.048 106.061 119.491C107.056 119.935 113.028 121.688 113.028 121.688C113.028 121.688 121.703 123.657 122.525 121.385C123.347 119.113 121.054 119.504 121.054 119.504C121.054 119.504 118.199 118.811 117.224 117.427C117.138 117.452 117.054 117.483 116.972 117.52C116.87 117.437 116.761 117.347 116.645 117.247C115.877 116.579 115.164 115.85 114.513 115.068C112.668 112.876 116.359 108.665 116.359 108.665L123.454 99.4364C123.454 99.4364 124.031 98.398 126.8 94.2448C129.568 90.0915 126.793 87.8418 126.793 87.8418Z" fill="black"/>
<path d="M88.8524 49.1315L89.1155 49.4637L89.2626 49.6489L90.1797 50.8032C90.1797 50.8032 92.3689 51.5058 94.288 51.9609C96.2868 52.4333 97.9914 52.6393 96.6363 51.5092C95.7953 50.8083 95.7399 49.635 96.0462 48.377C96.3042 47.4088 96.6735 46.4739 97.1469 45.5908C97.2149 45.4593 97.2824 45.3312 97.3493 45.2066C97.7792 44.4116 98.2553 43.6425 98.7753 42.9033C97.5449 42.0512 96.2687 41.2673 94.9525 40.5549C93.3674 39.7347 92.066 39.3765 92.8915 40.9997C93.421 42.038 93.248 43.2044 92.753 44.3206C92.715 44.4088 92.6734 44.4936 92.6302 44.5854C92.1859 45.4503 91.6372 46.2576 90.9965 46.9891C90.3401 47.7592 89.6231 48.4757 88.8524 49.1315Z" fill="#EFB7B9"/>
<path d="M99.8136 75.4927L100.987 76.5639L102.12 80.9248H100.229L98.1402 78.2079L99.8136 75.4927Z" fill="#444053"/>
<path opacity="0.1" d="M98.1402 78.2079L99.4035 79.8502L100.229 80.9248H102.12L101.927 80.179L101.101 77.0017L100.987 76.5639L99.8136 75.4927L98.2111 78.0919L98.1402 78.2079Z" fill="black"/>
<path opacity="0.1" d="M98.1402 78.2079L99.4035 79.8502L100.229 80.9248H102.12L101.927 80.179L101.101 77.0017L100.987 76.5639L99.8136 75.4927L98.2111 78.0919L98.1402 78.2079Z" fill="black"/>
<path d="M91.8531 89.683C91.8531 89.683 92.6682 89.9807 93.7567 90.396C95.4873 91.0622 97.9273 92.0348 98.7753 92.5678C99.6232 93.1008 102.785 93.9765 105.152 94.5925C106.907 95.0477 108.714 95.2711 110.527 95.257C112.369 95.2397 114.599 95.2224 115.215 95.2224C115.323 95.2215 115.431 95.2297 115.537 95.2467C116.184 95.354 116.158 95.7883 116.143 95.8922V95.9146C112.336 98.2214 107.72 108.548 107.433 110.278C107.217 111.576 105.315 115.174 104.377 116.894C104.062 117.47 103.858 117.835 103.858 117.835L105.012 119.161L108.355 120.66L111.528 122.044C111.528 122.044 114.874 122.217 114.932 122.044C114.989 121.871 114.989 120.083 114.989 120.083C114.581 119.82 114.195 119.526 113.833 119.204C113.065 118.536 112.352 117.807 111.701 117.025C109.856 114.833 113.547 110.622 113.547 110.622L120.642 101.394C120.642 101.394 121.219 100.355 123.987 96.2019C126.756 92.0486 123.987 89.799 123.987 89.799L119.547 87.2603C112.625 83.0499 102.875 80.6271 102.875 80.6271L102.73 80.6081L100.568 80.3381L91.8531 89.683Z" fill="#EFB7B9"/>
<path opacity="0.1" d="M103.856 117.834L105.01 119.159L108.355 120.66L111.528 122.044C111.528 122.044 114.874 122.217 114.932 122.044C114.989 121.871 114.989 120.083 114.989 120.083C114.581 119.82 114.195 119.527 113.833 119.204C113.474 119.396 113.068 119.756 113.461 120.314C113.461 120.314 114.066 121.026 113.613 121.092C113.159 121.158 111.969 120.898 111.969 120.898L104.419 116.918L104.375 116.889C104.057 117.469 103.856 117.834 103.856 117.834Z" fill="black"/>
<path d="M113.628 120.66C113.628 120.66 114.234 121.373 113.779 121.438C113.324 121.504 112.135 121.243 112.135 121.243L104.586 117.263C104.586 117.263 103.764 116.679 103.569 117.825C103.373 118.971 103.245 118.863 103.245 118.863C103.245 118.863 102.25 121.006 103.245 121.449C104.24 121.892 110.211 123.638 110.211 123.638C110.211 123.638 118.884 125.605 119.706 123.335C120.528 121.065 118.235 121.452 118.235 121.452C118.235 121.452 115.38 120.76 114.407 119.376C114.412 119.382 113 119.772 113.628 120.66Z" fill="#444053"/>
<path opacity="0.1" d="M92.3135 43.8811C93.3137 44.5733 94.8401 45.6688 96.1431 45.6688C96.4793 45.6687 96.8149 45.6421 97.1469 45.5892C97.6288 44.6578 98.1728 43.76 98.7753 42.9017C98.7753 42.9017 91.1609 37.5941 92.8915 40.9981C93.4625 42.1298 92.9001 42.6853 92.3135 43.8811Z" fill="black"/>
<path d="M89.9132 39.0928C89.9115 41.2039 90.9808 43.1718 92.753 44.319C92.9488 44.4467 93.1522 44.5623 93.3622 44.6651C95.8538 45.908 98.8676 45.3467 100.745 43.2901C102.622 41.2335 102.906 38.181 101.441 35.813C99.9766 33.445 97.1184 32.3365 94.4401 33.0977C91.7617 33.8589 89.9137 36.3049 89.9132 39.0893V39.0928Z" fill="#EFB7B9"/>
<path opacity="0.1" d="M91.8531 89.683C91.8531 89.683 92.6682 89.9807 93.7567 90.396C94.4403 89.7938 95.1412 89.2123 95.4336 89.1067C96.0687 88.8748 98.1454 87.6635 98.0883 87.3174C98.0311 86.9713 98.9535 85.6457 99.7599 85.4138C100.566 85.1819 100.106 83.9723 100.106 83.9723C100.106 83.9723 101.664 83.396 102.051 82.5878C102.439 81.7797 103.626 80.7413 103.221 80.8002C103.045 80.7717 102.878 80.7062 102.73 80.6081L100.568 80.3381L91.8531 89.683Z" fill="black"/>
<path d="M87.1219 87.6064C87.1219 87.6064 89.7765 89.799 89.8994 90.7785C90.0222 91.7579 91.7943 91.7026 91.7943 91.7026C91.7943 91.7026 94.4489 89.1639 95.0823 88.9337C95.7157 88.7036 97.7941 87.4905 97.7369 87.1443C97.6798 86.7982 98.6022 85.4727 99.4086 85.2408C100.215 85.0089 99.7548 83.7992 99.7548 83.7992C99.7548 83.7992 101.312 83.223 101.7 82.4148C102.088 81.6066 103.275 80.5683 102.87 80.6272C102.755 80.6427 102.39 80.4541 101.927 80.179C101.357 79.8328 100.636 79.3639 100.047 78.9676C99.4242 78.5453 98.9483 78.2096 98.9483 78.2096C98.9483 78.2096 98.6766 78.1612 98.2111 78.0937C95.7001 77.7303 87.5216 76.8027 85.6232 79.8242C85.3702 80.2235 85.1805 80.6596 85.0608 81.1169C84.2111 84.3357 87.1219 87.6064 87.1219 87.6064Z" fill="#444053"/>
<path opacity="0.1" d="M89.8977 80.6116C89.8977 80.6116 87.1876 82.1414 86.177 82.1414C85.1664 82.1414 89.8977 80.6116 89.8977 80.6116Z" fill="black"/>
<path opacity="0.1" d="M91.7078 81.7797C91.7078 81.7797 87.6722 83.1364 87.6722 84.2024C87.6722 85.2685 87.2949 81.3471 91.7078 81.7797Z" fill="black"/>
<path opacity="0.1" d="M101.369 75.6692L101.312 75.747C101.338 75.727 101.358 75.7 101.369 75.6692Z" fill="black"/>
<path opacity="0.1" d="M88.8524 49.1316L89.1155 49.4638L89.2626 49.649L90.1797 50.8032C90.1797 50.8032 92.3689 51.5058 94.288 51.961C96.2868 52.4334 97.9914 52.6393 96.6363 51.5093C95.7953 50.8084 95.7399 49.6351 96.0462 48.377L95.9857 48.2992C95.9857 48.2992 96.0462 49.4655 95.3558 49.488C94.4247 49.5175 94.4126 49.2042 93.5543 48.8426C92.4485 48.3753 91.315 47.5948 90.9965 46.9874C90.3402 47.7582 89.6232 48.4752 88.8524 49.1316Z" fill="black"/>
<path opacity="0.1" d="M85.0608 81.1117C85.5329 81.3135 86.0646 81.3259 86.5456 81.1463C88.3333 80.5683 91.1609 79.177 92.4865 79.7861C93.5491 80.2741 97.8287 80.2603 99.4087 79.8502C99.8015 79.7481 100.026 79.6217 99.9918 79.4729C99.9695 79.3015 99.9903 79.1272 100.052 78.9659C100.236 78.3792 100.734 77.5641 101.106 77.0017L100.992 76.5639L99.8188 75.4927L98.2163 78.0885C95.7053 77.7251 87.5268 76.7975 85.6284 79.819C85.3736 80.218 85.1821 80.6541 85.0608 81.1117Z" fill="black"/>
<path d="M83.8927 79.7619C83.8927 79.7619 84.5849 81.3765 86.3726 80.8002C88.1602 80.2239 90.9879 78.8308 92.3135 79.44C93.6391 80.0491 99.9867 79.8761 99.8136 79.1268C99.6405 78.3774 101.371 76.0118 101.371 76.0118C101.371 76.0118 100.426 75.8388 99.8413 72.7532C99.7548 72.3033 99.6769 71.791 99.6111 71.2096C99.4682 70.0188 99.4346 68.8174 99.5108 67.6205C99.7444 64.2805 100.914 62.9169 100.914 62.9169C100.914 62.9169 102.529 61.0721 101.144 58.5334C100.419 57.2027 97.493 53.5149 97.4532 51.8709C97.4168 50.3792 95.9909 48.6452 95.9909 48.6452C95.9909 48.6452 96.0514 49.8116 95.3609 49.8341C94.4299 49.8635 94.4178 49.5503 93.5595 49.1886C92.2979 48.6556 91.0017 47.7159 90.9169 47.0877C90.9169 47.0877 85.6284 46.8229 84.4742 52.1876C83.3199 57.5522 83.7248 60.4941 83.8979 61.1292C84.071 61.7643 85.5696 69.955 84.3582 73.416C83.1468 76.8771 83.8927 79.7619 83.8927 79.7619Z" fill="#A36468"/>
<path opacity="0.1" d="M92.5159 70.3375C93.4697 71.9466 94.7459 73.3412 96.2643 74.4337C97.2768 74.4421 98.288 74.5097 99.2927 74.6361C99.2062 74.1862 99.1197 73.674 99.0625 73.0925C98.9196 71.9017 98.886 70.7003 98.9622 69.5034C98.6261 69.3348 98.3789 69.0296 98.2838 68.6658C97.9948 67.6846 95.4215 63.0122 95.4215 63.0122C95.4215 63.0122 89.401 61.4547 89.1916 63.0122C88.9822 64.5696 91.0156 67.7417 92.5159 70.3375Z" fill="black"/>
<path d="M94.5113 60.0997C94.5113 60.0997 98.1454 66.9751 98.4274 67.9563C98.5781 68.5153 99.0742 68.9119 99.6527 68.9358C99.6527 68.9358 103.273 69.801 104.138 69.917C105.003 70.0329 112.509 70.6663 112.509 70.6663C112.509 70.6663 114.412 70.7251 114.643 70.0329C114.854 69.3996 118.531 66.0717 120.66 68.9756C121.058 69.5204 121.172 70.2223 120.968 70.8653C120.577 72.1113 119.774 74.0893 118.912 72.8589C117.7 71.1284 116.292 71.6146 116.292 72.537C116.292 73.4594 114.354 73.1167 113.72 73.2465C113.374 73.3175 112.183 73.6342 111.154 73.9111C109.956 74.2346 108.729 74.4381 107.49 74.5185C105.446 74.6517 102.434 74.7625 101.366 74.3593C100.078 73.8695 97.8304 73.757 96.8665 73.7311C96.5478 73.7234 96.24 73.6129 95.9891 73.4161C94.6542 72.3706 93.5252 71.086 92.6596 69.628C91.1592 67.0322 88.0737 61.6572 88.2813 60.0997C88.489 58.5422 94.5113 60.0997 94.5113 60.0997Z" fill="#EFB7B9"/>
<path opacity="0.1" d="M93.2999 50.573C93.2999 50.573 95.2467 53.8039 96.1483 56.1107C97.0499 58.4175 98.1454 62.4566 98.1454 62.4566L92.7219 61.8215L92.2616 61.0721C92.2616 61.0721 88.3886 63.4949 88.8507 64.5332C89.3127 65.5715 87.8124 62.9757 87.9283 60.0338C88.0443 57.0919 87.5113 51.8415 87.9283 50.573C88.3454 49.3045 92.0245 49.5918 93.2999 50.573Z" fill="black"/>
<path d="M87.9352 59.6877C87.8193 62.6296 89.3196 65.2254 88.8576 64.1871C88.3955 63.1488 92.2685 60.726 92.2685 60.726L92.7236 61.4754L98.1454 62.1105C98.1454 62.1105 97.0499 58.0714 96.1483 55.7646C95.6067 54.4595 94.9872 53.1882 94.2932 51.9574C93.7377 50.9485 93.2999 50.2269 93.2999 50.2269C92.554 49.6506 90.9706 49.3132 89.7073 49.3928C89.5104 49.404 89.3145 49.4277 89.1206 49.4637C88.6015 49.5658 88.1827 49.7631 87.9975 50.0746C87.9692 50.1228 87.946 50.1739 87.9283 50.2269C87.513 51.4954 88.046 56.7458 87.9352 59.6877Z" fill="#A36468"/>
<path opacity="0.1" d="M85.5125 67.7417C85.5125 67.7417 87.8054 70.8999 88.4976 70.9864C88.4925 70.9934 85.5506 70.3375 85.5125 67.7417Z" fill="black"/>
<path opacity="0.1" d="M85.5125 72.2411C85.5125 72.2411 89.8388 76.6107 91.2232 76.6539C92.6077 76.6972 85.5125 72.2411 85.5125 72.2411Z" fill="black"/>
<path opacity="0.1" d="M85.5125 74.0651C85.5125 74.0651 88.2813 77.3098 88.4544 77.3098C88.6274 77.3098 85.464 76.185 85.5125 74.0651Z" fill="black"/>
<path opacity="0.1" d="M87.9923 50.0746C88.4374 50.0083 88.8674 49.8642 89.2626 49.6489C89.4114 49.5711 89.5585 49.4845 89.7021 49.3928C90.2695 49.0131 90.7982 48.5783 91.2803 48.0949C92.0764 47.3214 92.8707 46.4769 93.1995 45.4161C93.2734 45.1716 93.3278 44.9216 93.3622 44.6685C93.5595 43.3377 93.3933 41.8685 94.3451 40.9634C94.524 40.7946 94.7291 40.6561 94.9525 40.5533C96.3024 39.9112 98.2596 40.3266 99.2668 39.1688C99.9071 38.4351 99.8915 37.4158 100.383 36.618C100.598 36.2719 100.992 35.9725 101.342 35.6541C99.9486 33.5335 97.4087 32.4695 94.9201 32.9642C92.4316 33.4588 90.4916 35.4133 90.0155 37.9054C89.5393 40.3976 90.6221 42.9295 92.753 44.3068C92.715 44.395 92.6734 44.4798 92.6302 44.5716C91.4413 46.9943 88.8524 49.1194 88.8524 49.1194L89.1155 49.4517C88.5911 49.5711 88.1775 49.7631 87.9923 50.0746Z" fill="black"/>
<path d="M98.9206 38.9992C97.7491 40.3421 95.2865 39.5599 93.9973 40.7903C92.8655 41.8684 93.3154 43.7495 92.8534 45.243C92.5246 46.3038 91.7303 47.1465 90.9342 47.9218C89.7748 49.0501 88.2917 50.1957 86.7065 49.8721C85.7669 49.68 84.8462 48.9774 83.9377 49.3011C83.486 49.4637 83.1624 49.8548 82.825 50.1992C81.6787 51.3673 80.1888 52.1381 78.573 52.3987C78.2536 52.4708 77.9205 52.4552 77.6091 52.3537C77.1246 52.1564 76.8633 51.6269 76.422 51.3448C75.5567 50.791 74.4457 51.3587 73.5476 51.8536C68.4663 54.6048 62.4473 55.0379 57.0245 53.0425L58.4245 52.3503C58.1268 51.7428 57.3221 51.6096 56.8099 51.1648C55.7543 50.2494 56.3755 48.4185 57.4917 47.5792C58.6079 46.7399 60.0529 46.4474 61.2089 45.6635C61.4442 45.5043 61.6831 45.2931 61.7056 45.0111C61.7018 44.8039 61.6361 44.6026 61.5169 44.4331C60.9009 43.348 60.219 42.1834 60.3575 40.9426C60.5686 39.039 62.647 37.8692 64.5557 37.7359C66.4645 37.6027 68.3543 38.1772 70.2665 38.2101C70.9587 38.2222 71.6838 38.1547 72.2774 37.7965C73.1063 37.2981 73.5234 36.348 74.0269 35.5226C74.9258 34.0569 76.2138 32.8695 77.7476 32.0927C79.4781 31.2187 81.4371 30.9124 83.2368 30.1891C85.0746 29.4519 86.7463 28.2855 88.669 27.8165C91.4603 27.1243 94.4507 28.0294 96.8613 29.5938C98.0225 30.3465 101.731 32.7624 101.707 34.3077C101.688 35.2249 100.495 35.7216 100.044 36.4415C99.5454 37.2462 99.5609 38.2655 98.9206 38.9992Z" fill="#965D7B"/>
<g opacity="0.1">
<path d="M61.3474 43.566C61.4656 43.736 61.5312 43.937 61.536 44.144C61.5291 44.217 61.5085 44.2881 61.4754 44.3534C60.9666 43.457 60.4371 42.507 60.3523 41.5067C60.5773 42.2214 60.9736 42.9084 61.3474 43.566Z" fill="black"/>
<path d="M56.6403 50.2978C57.1508 50.7426 57.9555 50.8758 58.2549 51.4833L57.76 51.729C57.4265 51.5722 57.1094 51.3826 56.8134 51.1631C56.4329 50.8241 56.2331 50.3265 56.2734 49.8185C56.3616 50.0017 56.4865 50.1648 56.6403 50.2978Z" fill="black"/>
<path d="M73.378 50.9883C74.2761 50.4934 75.3889 49.9258 76.2524 50.4796C76.692 50.7616 76.955 51.2912 77.4396 51.4885C77.7503 51.59 78.0828 51.6055 78.4017 51.5335C80.0179 51.2728 81.5084 50.5021 82.6554 49.334C82.9911 48.9878 83.3147 48.5985 83.7681 48.4358C84.6714 48.1122 85.5921 48.8148 86.537 49.0069C88.1221 49.3305 89.6035 48.1849 90.7647 47.0566C91.5607 46.283 92.3533 45.4385 92.6821 44.3777C93.1459 42.8843 92.6959 41.0032 93.8277 39.9251C95.1204 38.6946 97.5778 39.4768 98.7511 38.134C99.3896 37.4002 99.3758 36.3809 99.8672 35.5832C100.283 34.91 101.359 34.4323 101.511 33.6207C101.63 33.8326 101.696 34.0701 101.703 34.3129C101.684 35.2301 100.492 35.7268 100.04 36.4467C99.5488 37.2445 99.5627 38.2637 98.9241 38.9975C97.7508 40.3404 95.29 39.5582 94.0007 40.7886C92.869 41.8667 93.3189 43.7478 92.8551 45.2412C92.5263 46.3021 91.7337 47.1448 90.9377 47.9201C89.7765 49.0484 88.2952 50.194 86.71 49.8704C85.7686 49.6783 84.848 48.9757 83.9412 49.2993C83.4878 49.462 83.1642 49.8531 82.8284 50.1975C81.6815 51.3656 80.191 52.1364 78.5748 52.397C78.2559 52.4691 77.9234 52.4535 77.6126 52.352C77.1281 52.1547 76.865 51.6252 76.4255 51.3431C75.5602 50.7893 74.4492 51.3569 73.5511 51.8519C68.4698 54.6031 62.4507 55.0362 57.0279 53.0408L57.9953 52.5614C63.128 54.1034 68.6636 53.5373 73.378 50.9883Z" fill="black"/>
</g>
<path opacity="0.1" d="M116.143 95.8905L117.598 95.1862V94.911C117.598 94.8055 116.437 95.0391 115.537 95.2381C116.184 95.3523 116.158 95.7867 116.143 95.8905Z" fill="black"/>
<path d="M117.408 79.9765C119.344 79.9765 120.914 78.0666 120.914 75.7107C120.914 73.3548 119.344 71.4449 117.408 71.4449C115.472 71.4449 113.902 73.3548 113.902 75.7107C113.902 78.0666 115.472 79.9765 117.408 79.9765Z" fill="#FD7A5C"/>
<path d="M83.6625 70.1592L78.0262 75.7176L59.4974 75.394L64.5921 70.1592H83.6625Z" fill="#DDA2A6"/>
<path d="M83.6626 89.1743V70.1592L78.0262 75.7176V94.3243L83.6626 89.1743Z" fill="#B77B7F"/>
<path d="M59.4974 75.394V94.3243H78.0262V75.7177L59.4974 75.394Z" fill="#DDA2A6"/>
<path opacity="0.3" d="M59.4974 75.394V94.3243H78.0262V75.7177L59.4974 75.394Z" fill="white"/>
<path d="M76.5206 80.9283L62.7404 78.5626L60.9441 87.6098L75.131 90.216L76.5206 80.9283Z" fill="#DCE0ED"/>
<path d="M73.7985 83.0413L64.535 81.5859L64.3031 82.7938L73.5666 84.3652L73.7985 83.0413Z" fill="#FD7A5C"/>
<path d="M71.2512 85.625L65.9817 84.8601L65.7498 86.2013L71.2512 86.9731V85.625Z" fill="#FD7A5C"/>
<path d="M81.3834 80.1392L81.1325 72.653L79.6841 74.0824L79.9367 81.586L81.3834 80.1392Z" fill="#65617D"/>
<path d="M62.7283 72.075L80.5337 72.3155L81.1325 72.6529L79.6841 74.0824L79.1839 73.7882L61.5481 73.2881L62.7283 72.075Z" fill="#65617D"/>
</svg>
