<svg width="18" height="18" viewBox="0 0 18 18" fill="none" xmlns="http://www.w3.org/2000/svg">
<path fill-rule="evenodd" clip-rule="evenodd" d="M17.1967 16.7516C17.0405 17.4407 16.3404 18 15.6338 18H15.629C7.01997 18.0035 0 11.0306 0 2.37304V2.36775C0 1.6613 0.559134 0.961061 1.24804 0.804712L4.55942 0.0414733C4.65816 0.0185737 4.82055 0 4.92193 0C5.50788 0 6.16936 0.437667 6.39842 0.976991L7.92703 4.54603C7.99796 4.71302 8.05557 4.99581 8.05557 5.17726C8.05557 5.59821 7.79166 6.15679 7.46646 6.4241L6.06022 7.57368C6.91097 9.13253 8.86694 11.0874 10.4263 11.9373L11.5759 10.531C11.8429 10.2058 12.4011 9.94188 12.8219 9.94188C13.0033 9.94188 13.2859 9.99949 13.4529 10.0705L17.0244 11.6015C17.563 11.832 18.0001 12.4944 18.0001 13.0803C18.0001 13.1806 17.9819 13.3414 17.9595 13.4391L17.1967 16.7516ZM1.6875 2.43632C1.72265 10.0898 7.91295 16.2805 15.5622 16.3156L16.2974 13.1249L12.8454 11.6444L10.8875 14.0389C7.41373 12.4087 5.59265 10.5936 3.96176 7.11315L6.35554 5.1546L4.87582 1.70157L1.6875 2.43632Z" fill="#77829E"/>
</svg>
