<svg width="14" height="18" viewBox="0 0 14 18" fill="none" xmlns="http://www.w3.org/2000/svg">
<path fill-rule="evenodd" clip-rule="evenodd" d="M10.1609 14.26C9.47169 15.2068 8.66416 16.3161 7.71941 17.6368C7.37178 18.121 6.62819 18.121 6.28059 17.6368C5.33584 16.3161 4.52831 15.2068 3.8391 14.26C0.663823 9.89806 0 8.98616 0 6.74998C0 3.02206 3.13399 0 7 0C10.866 0 14 3.02206 14 6.74998C14 8.98616 13.3362 9.89806 10.1609 14.26ZM4.08333 6.74998C4.08333 8.30328 5.38918 9.56248 7 9.56248C8.61082 9.56248 9.91667 8.30328 9.91667 6.74998C9.91667 5.19669 8.61082 3.93749 7 3.93749C5.38918 3.93749 4.08333 5.19669 4.08333 6.74998Z" fill="#FD7A5C"/>
</svg>
