<svg width="18" height="20" viewBox="0 0 18 20" fill="none" xmlns="http://www.w3.org/2000/svg">
<path fill-rule="evenodd" clip-rule="evenodd" d="M7.36501 18.414C7.40999 19.2773 6.75 20 5.925 20H3.675C2.84626 20 2.19001 19.2734 2.23499 18.414L2.6625 10.1796C1.00126 9.43357 0 7.84372 0 5.85547C0 4.625 0.50625 1.6875 0.573743 1.3203C0.697485 0.566405 1.35751 0 2.30251 0C2.74874 0 3.20625 0.132827 3.55126 0.437507C3.86624 0.160141 4.30126 0 4.8 0C5.29874 0 5.73376 0.160141 6.04874 0.437507C6.39375 0.132827 6.85126 0 7.29749 0C8.23125 0 8.90251 0.558585 9.02626 1.3203C9.09375 1.6875 9.6 4.625 9.6 5.85547C9.6 7.84372 8.59501 9.43357 6.9375 10.1796L7.36501 18.414ZM18 18.496C18 19.3242 17.3287 20 16.5 20H14.4C13.545 20 12.8325 19.2695 12.9037 18.371L13.4362 11.9336C11.8575 10.6406 10.7963 8.92576 10.7963 6.87498C10.8 3.19141 14.1037 0 16.5 0C17.3287 0 18 0.675772 18 1.5039V18.496ZM3.675 18.75C3.53624 18.75 3.42374 18.6289 3.43125 18.4804L3.88876 9.37498C2.29874 9.03124 1.2 7.69529 1.2 5.85547C1.2 4.69531 1.75499 1.53515 1.75499 1.53515C1.81501 1.14845 2.81624 1.15623 2.86124 1.54297V6.32811C2.89501 6.77733 3.91875 6.78515 3.96749 6.33593L4.24501 1.53515C4.30499 1.15623 5.29124 1.15623 5.35126 1.53515L5.62874 6.33593C5.67751 6.78122 6.70126 6.77344 6.73499 6.32811V1.54686C6.77999 1.16016 7.78125 1.15234 7.84124 1.53907C7.84124 1.53907 8.39627 4.6992 8.39627 5.85936C8.4 7.68747 7.30876 9.03124 5.71124 9.37498L6.16875 18.4804C6.17626 18.6249 6.06749 18.75 5.925 18.75H3.675ZM14.4 18.75H16.5C16.6612 18.75 16.8 18.6328 16.8 18.496V1.5039C16.8 1.36718 16.6612 1.25 16.5 1.25C14.8275 1.25 12 3.8203 12 6.87498C12 8.86717 13.2075 10.2148 14.6925 11.3476L14.1 18.4804C14.0888 18.6249 14.2275 18.75 14.4 18.75Z" fill="#707DA3"/>
</svg>
