<svg width="16" height="20" viewBox="0 0 16 20" fill="none" xmlns="http://www.w3.org/2000/svg">
<path fill-rule="evenodd" clip-rule="evenodd" d="M6.46154 19.0117C6.48847 19.5469 6.06922 20 5.53846 20H3.07692C2.54999 20 2.12692 19.5508 2.15385 19.0117L2.65002 9.71095C1.06539 9.12502 0 7.66411 0 5.62504C0 4.28875 0.581931 0.816295 0.618651 0.59718L0.619216 0.593812C0.7423 -0.199147 2.36155 -0.210897 2.46154 0.636765V6.15238C2.51153 6.28521 3.04229 6.27739 3.07692 6.15238C3.10164 5.69885 3.16767 4.51645 3.23225 3.35984C3.3084 1.99613 3.38254 0.668289 3.38462 0.613343C3.51153 -0.199147 5.10385 -0.199147 5.22694 0.613343C5.2346 0.718819 5.48077 5.16411 5.53463 6.15238C5.56922 6.27739 6.10385 6.28521 6.15001 6.15238V0.636765C6.25 -0.206967 7.87308 -0.199147 7.99617 0.593812L7.99647 0.595603C8.03055 0.799007 8.61539 4.28934 8.61539 5.62504C8.61539 7.668 7.54616 9.12502 5.96537 9.71095L6.46154 19.0117ZM16 19.0625C16 19.582 15.5885 20 15.0769 20H12.9231C12.3846 20 11.9577 19.5313 12.0038 18.9844L12.5808 11.7539C6.56152 6.9727 11.9038 5.56485e-05 15.0769 5.56485e-05C15.5885 5.56485e-05 16 0.421922 16 0.937553V19.0625Z" fill="#FD7A5C"/>
</svg>
