<svg width="20" height="20" viewBox="0 0 20 20" fill="none" xmlns="http://www.w3.org/2000/svg">
<path fill-rule="evenodd" clip-rule="evenodd" d="M13.2187 17.7695C12.7305 19.0742 11.4726 20 9.99998 20C8.52732 20 7.2695 19.0703 6.78122 17.7695C5.51169 18.3476 3.96873 18.1093 2.92968 17.0703C1.88671 16.0312 1.65626 14.4843 2.23045 13.2187C0.925787 12.7305 0 11.4726 0 9.99998C0 8.52732 0.925787 7.2695 2.23045 6.78122C1.65626 5.51562 1.88671 3.97265 2.92968 2.92968C3.96873 1.88671 5.51562 1.65626 6.78122 2.23045C7.2695 0.925787 8.52732 0 9.99998 0C11.4726 0 12.7305 0.925787 13.2187 2.23045C14.4843 1.65626 16.0273 1.88671 17.0703 2.92968C18.1132 3.97265 18.3437 5.51562 17.7695 6.78122C19.0742 7.2695 20 8.52732 20 9.99998C20 11.4726 19.0742 12.7305 17.7695 13.2187C18.3437 14.4843 18.1132 16.0273 17.0703 17.0703C16.0312 18.1093 14.4922 18.3476 13.2187 17.7695ZM6.24999 7.49998C6.24999 8.19021 6.80975 8.74998 7.49998 8.74998C8.19021 8.74998 8.74998 8.19021 8.74998 7.49998C8.74998 6.80975 8.19021 6.24999 7.49998 6.24999C6.80975 6.24999 6.24999 6.80975 6.24999 7.49998ZM7.0957 13.3457L6.65388 12.9039C6.40974 12.6597 6.40974 12.264 6.65388 12.0199L12.0199 6.65388C12.264 6.40974 12.6597 6.40974 12.9039 6.65388L13.3457 7.0957C13.5898 7.33984 13.5898 7.73554 13.3457 7.97968L7.97968 13.3457C7.73554 13.5898 7.33984 13.5898 7.0957 13.3457ZM11.25 12.5C11.25 13.1902 11.8097 13.75 12.5 13.75C13.1902 13.75 13.75 13.1902 13.75 12.5C13.75 11.8097 13.1902 11.25 12.5 11.25C11.8097 11.25 11.25 11.8097 11.25 12.5Z" fill="#FD7A5C"/>
</svg>
