<svg width="20" height="20" viewBox="0 0 20 20" fill="none" xmlns="http://www.w3.org/2000/svg">
<path fill-rule="evenodd" clip-rule="evenodd" d="M9.99998 20C11.3867 20 12.6601 19.2421 13.3398 18.0625C14.6172 18.4101 16.0508 18.0898 17.0703 17.0703C18.0507 16.0898 18.4179 14.6523 18.0625 13.3398C19.2421 12.664 20 11.3867 20 9.99998C20 8.61326 19.2421 7.33591 18.0625 6.66014C18.4179 5.34766 18.0507 3.91013 17.0703 2.92968C16.0898 1.94923 14.6523 1.58203 13.3398 1.93748C12.664 0.757826 11.3867 0 9.99998 0C8.61326 0 7.33591 0.757826 6.66014 1.93748C5.34766 1.58203 3.91013 1.94923 2.92968 2.92968C1.94923 3.91013 1.58203 5.34766 1.93748 6.66014C0.757826 7.33591 0 8.61326 0 9.99998C0 11.3867 0.757826 12.664 1.93748 13.3398C1.58203 14.6523 1.94923 16.0898 2.92968 17.0703C3.96483 18.1054 5.40625 18.4023 6.66014 18.0625C7.33984 19.2421 8.61326 20 9.99998 20ZM9.99998 18.75C8.11693 18.75 7.55482 17.0946 7.36993 16.5501C7.355 16.5061 7.34253 16.4694 7.33202 16.4414C6.05856 17.0195 4.9375 17.3085 3.81248 16.1875C2.4793 14.8579 3.25278 13.2898 3.50915 12.7701C3.52921 12.7294 3.5461 12.6951 3.55857 12.6679C3.52447 12.655 3.48327 12.6404 3.43617 12.6237L3.43613 12.6236L3.43612 12.6236C2.83045 12.4088 1.25 11.8484 1.25 9.99998C1.25 8.11693 2.90538 7.55482 3.44984 7.36993C3.49382 7.355 3.53055 7.34253 3.55857 7.33202C3.54381 7.29916 3.5253 7.26024 3.50415 7.21578C3.2287 6.63672 2.50649 5.11846 3.81248 3.81248C5.14016 2.48124 6.70772 3.25252 7.22573 3.5074C7.26859 3.52848 7.30426 3.54604 7.33202 3.55857C7.34499 3.52446 7.3596 3.48325 7.37631 3.43614L7.37632 3.43612C7.59111 2.83046 8.15159 1.25 9.99998 1.25C11.883 1.25 12.4451 2.90538 12.63 3.44984C12.6449 3.49382 12.6574 3.53055 12.6679 3.55857C12.7008 3.54381 12.7397 3.5253 12.7842 3.50415C13.3632 3.2287 14.8815 2.50649 16.1875 3.81248C17.5207 5.14204 16.7472 6.71015 16.4908 7.22989C16.4707 7.27056 16.4539 7.30481 16.4414 7.33202C16.4755 7.34498 16.5166 7.35959 16.5637 7.37628L16.5638 7.37631L16.5638 7.37632C17.1695 7.59111 18.75 8.15159 18.75 9.99998C18.75 11.883 17.0946 12.4451 16.5501 12.63C16.5061 12.6449 16.4694 12.6574 16.4414 12.6679C16.4561 12.7007 16.4746 12.7396 16.4957 12.784L16.4958 12.7842C16.7713 13.3632 17.4935 14.8815 16.1875 16.1875C15.0586 17.3164 13.9414 17.0195 12.6679 16.4414C12.655 16.4755 12.6403 16.5167 12.6236 16.5638L12.6236 16.5638C12.4088 17.1695 11.8484 18.75 9.99998 18.75ZM9.37498 7.49998C9.37498 8.53395 8.53395 9.37498 7.49998 9.37498C6.46601 9.37498 5.62499 8.53395 5.62499 7.49998C5.62499 6.46601 6.46601 5.62499 7.49998 5.62499C8.53395 5.62499 9.37498 6.46601 9.37498 7.49998ZM7.22498 13.6582L13.6582 7.22498C13.7804 7.1031 13.7804 6.90546 13.6586 6.7832L13.2168 6.34139C13.0949 6.21951 12.8969 6.21951 12.775 6.34139L6.34139 12.7746C6.21951 12.8965 6.21951 13.0945 6.34139 13.2164L6.7832 13.6582C6.90504 13.78 7.1031 13.78 7.22498 13.6582ZM6.87498 7.49998C6.87498 7.84491 7.15586 8.12498 7.49998 8.12498C7.84411 8.12498 8.12498 7.84491 8.12498 7.49998C8.12498 7.15506 7.84411 6.87498 7.49998 6.87498C7.15586 6.87498 6.87498 7.15506 6.87498 7.49998ZM12.5 14.375C13.5339 14.375 14.375 13.5339 14.375 12.5C14.375 11.466 13.5339 10.625 12.5 10.625C11.466 10.625 10.625 11.466 10.625 12.5C10.625 13.5339 11.466 14.375 12.5 14.375ZM11.875 12.5C11.875 12.8449 12.1558 13.125 12.5 13.125C12.8441 13.125 13.125 12.8449 13.125 12.5C13.125 12.155 12.8441 11.875 12.5 11.875C12.1558 11.875 11.875 12.155 11.875 12.5Z" fill="#707DA3"/>
</svg>
