<svg width="18" height="18" viewBox="0 0 18 18" fill="none" xmlns="http://www.w3.org/2000/svg">
<path fill-rule="evenodd" clip-rule="evenodd" d="M17.8769 17.0824L17.0824 17.8769C16.9172 18.0422 16.6499 18.0422 16.4847 17.8769L12.2168 13.6089C12.1394 13.5281 12.0937 13.4226 12.0937 13.3101V12.8461C10.8105 13.9535 9.1406 14.625 7.31248 14.625C3.27303 14.625 0 11.3519 0 7.31248C0 3.27303 3.27303 0 7.31248 0C11.3519 0 14.625 3.27303 14.625 7.31248C14.625 9.1406 13.9535 10.8105 12.8461 12.0937H13.3101C13.4226 12.0937 13.5281 12.1359 13.6089 12.2168L17.8769 16.4847C18.0422 16.6499 18.0422 16.9172 17.8769 17.0824ZM1.6875 7.31248C1.6875 10.4203 4.20466 12.9375 7.31248 12.9375C10.4203 12.9375 12.9375 10.4203 12.9375 7.31248C12.9375 4.20466 10.4203 1.6875 7.31248 1.6875C4.20466 1.6875 1.6875 4.20466 1.6875 7.31248Z" fill="#77829E"/>
</svg>
