<svg width="15" height="14" viewBox="0 0 15 14" fill="none" xmlns="http://www.w3.org/2000/svg">
<path fill-rule="evenodd" clip-rule="evenodd" d="M7.5 12.0206L3.83551 13.8991C3.18504 14.2355 2.40843 13.6968 2.5346 12.9776L3.23553 8.99914L0.271975 6.18274C-0.260734 5.67688 0.0336579 4.79368 0.768242 4.68978L4.86449 4.10737L6.69532 0.487054C7.02616 -0.166444 7.97664 -0.158246 8.30468 0.487054L10.1355 4.10737L14.2318 4.68978C14.9663 4.79368 15.2607 5.67688 14.728 6.18274L11.7645 8.99914L12.4654 12.9776C12.5916 13.6968 11.815 14.2327 11.1645 13.8991L7.5 12.0206ZM7.5 10.5386L10.985 12.3241L10.3205 8.53977L13.1411 5.86009L9.24393 5.30774L7.5 1.86244L5.75607 5.30774L1.85888 5.86009L4.67945 8.53977L4.01496 12.3241L7.5 10.5386Z" fill="#77829E"/>
</svg>
