<svg width="23" height="18" viewBox="0 0 23 18" fill="none" xmlns="http://www.w3.org/2000/svg">
<path fill-rule="evenodd" clip-rule="evenodd" d="M20.7 14.625C20.7 16.4882 19.1547 18 17.25 18C15.3453 18 13.8 16.4882 13.8 14.625H9.2C9.2 16.4882 7.65469 18 5.75 18C3.84531 18 2.3 16.4882 2.3 14.625H2.0125C0.902017 14.625 0 13.7426 0 12.6562V1.96875C0 0.882406 0.902017 0 2.0125 0H12.9375C14.048 0 14.95 0.882406 14.95 1.96875V3.37499H16.2473C16.9266 3.37499 17.595 3.6457 18.0766 4.11677L21.0917 7.06639C21.5733 7.5375 21.85 8.18789 21.85 8.85585V12.9375H22.425C22.7412 12.9375 23 13.1906 23 13.5V14.0625C23 14.3718 22.7412 14.625 22.425 14.625H20.7ZM2.0125 12.9375H2.77796C3.37455 11.932 4.47422 11.25 5.75 11.25C7.02578 11.25 8.12545 11.932 8.72204 12.9375H13.225V1.96875C13.225 1.81404 13.0956 1.6875 12.9375 1.6875H2.0125C1.85436 1.6875 1.725 1.81404 1.725 1.96875V12.6562C1.725 12.8109 1.85436 12.9375 2.0125 12.9375ZM19.4817 7.87498H14.95V5.06249H16.2473C16.4738 5.06249 16.6965 5.15388 16.8583 5.30858L19.4817 7.87498ZM17.25 11.25C18.4503 11.25 19.5069 11.8547 20.125 12.7652V9.56248H14.95V12.1254C15.5609 11.5875 16.3623 11.25 17.25 11.25ZM5.75 16.3125C4.79766 16.3125 4.025 15.5566 4.025 14.625C4.025 13.6933 4.79766 12.9375 5.75 12.9375C6.70234 12.9375 7.475 13.6933 7.475 14.625C7.475 15.5566 6.70234 16.3125 5.75 16.3125ZM15.525 14.625C15.525 15.5566 16.2977 16.3125 17.25 16.3125C18.2023 16.3125 18.975 15.5566 18.975 14.625C18.975 13.6933 18.2023 12.9375 17.25 12.9375C16.2977 12.9375 15.525 13.6933 15.525 14.625Z" fill="#77829E"/>
</svg>
