<svg width="18" height="14" viewBox="0 0 18 14" fill="none" xmlns="http://www.w3.org/2000/svg">
<path fill-rule="evenodd" clip-rule="evenodd" d="M16.2 11.375C16.2 12.8242 14.9906 14 13.5 14C12.0094 14 10.8 12.8242 10.8 11.375H7.2C7.2 12.8242 5.99062 14 4.5 14C3.00938 14 1.8 12.8242 1.8 11.375H1.575C0.705927 11.375 0 10.6887 0 9.84373V1.53125C0 0.686316 0.705927 0 1.575 0H10.125C10.9941 0 11.7 0.686316 11.7 1.53125V2.62499H12.7153C13.2469 2.62499 13.77 2.83555 14.1469 3.20193L16.5066 5.49608C16.8834 5.8625 17.1 6.36836 17.1 6.88789V10.0625H17.55C17.7975 10.0625 18 10.2594 18 10.5V10.9375C18 11.1781 17.7975 11.375 17.55 11.375H16.2ZM1.575 10.0625H2.17406C2.64095 9.28046 3.50156 8.74998 4.5 8.74998C5.49844 8.74998 6.35905 9.28046 6.82594 10.0625H10.35V1.53125C10.35 1.41092 10.2488 1.3125 10.125 1.3125H1.575C1.45124 1.3125 1.35 1.41092 1.35 1.53125V9.84373C1.35 9.96405 1.45124 10.0625 1.575 10.0625ZM15.2466 6.12499H11.7V3.93749H12.7153C12.8925 3.93749 13.0669 4.00857 13.1934 4.1289L15.2466 6.12499ZM13.5 8.74998C14.4394 8.74998 15.2662 9.2203 15.75 9.92848V7.43748H11.7V9.43085C12.1781 9.01247 12.8053 8.74998 13.5 8.74998ZM4.5 12.6875C3.75469 12.6875 3.15 12.0996 3.15 11.375C3.15 10.6504 3.75469 10.0625 4.5 10.0625C5.24531 10.0625 5.85 10.6504 5.85 11.375C5.85 12.0996 5.24531 12.6875 4.5 12.6875ZM12.15 11.375C12.15 12.0996 12.7547 12.6875 13.5 12.6875C14.2453 12.6875 14.85 12.0996 14.85 11.375C14.85 10.6504 14.2453 10.0625 13.5 10.0625C12.7547 10.0625 12.15 10.6504 12.15 11.375Z" fill="#FD7A5C"/>
</svg>
