<svg width="20" height="20" viewBox="0 0 20 20" fill="none" xmlns="http://www.w3.org/2000/svg">
<path fill-rule="evenodd" clip-rule="evenodd" d="M15.625 5.62499C15.625 8.73045 13.1054 11.25 9.99998 11.25C6.89452 11.25 4.37499 8.73045 4.37499 5.62499C4.37499 2.51953 6.89452 0 9.99998 0C13.1054 0 15.625 2.51953 15.625 5.62499ZM20 18.125C20 19.1601 19.1601 20 18.125 20H1.875C0.839842 20 0 19.1601 0 18.125V17.5C0 14.7382 2.23827 12.5 4.99999 12.5H7.15231C8.02343 12.8984 8.98435 13.125 9.99998 13.125C11.0156 13.125 11.9804 12.8984 12.8476 12.5H15C17.7617 12.5 20 14.7382 20 17.5V18.125Z" fill="#FD7A5C"/>
</svg>
