<svg width="20" height="20" viewBox="0 0 20 20" fill="none" xmlns="http://www.w3.org/2000/svg">
<path fill-rule="evenodd" clip-rule="evenodd" d="M15.625 5.62499C15.625 8.73045 13.1054 11.25 9.99998 11.25C6.89452 11.25 4.37499 8.73045 4.37499 5.62499C4.37499 2.51953 6.89452 0 9.99998 0C13.1054 0 15.625 2.51953 15.625 5.62499ZM5.62499 5.62499C5.62499 8.03904 7.58593 9.99998 9.99998 9.99998C12.414 9.99998 14.375 8.03904 14.375 5.62499C14.375 3.21094 12.414 1.25 9.99998 1.25C7.58593 1.25 5.62499 3.21094 5.62499 5.62499ZM18.75 20C19.4414 20 20 19.4414 20 18.75V17.5C20 14.7382 17.7617 12.5 15 12.5C12.9784 12.5 12.3513 12.696 11.7996 12.8685C11.3663 13.004 10.9795 13.125 9.99998 13.125C9.0246 13.125 8.63729 13.0042 8.2032 12.8688C7.64984 12.6962 7.02046 12.5 4.99999 12.5C2.23827 12.5 0 14.7382 0 17.5V18.75C0 19.4414 0.558585 20 1.25 20H18.75ZM1.25 17.5V18.75H18.75V17.5C18.75 15.4335 17.0664 13.75 15 13.75C13.1992 13.75 12.5802 13.9334 12.013 14.1015C11.5331 14.2437 11.0902 14.375 9.99998 14.375C8.91399 14.375 8.47044 14.2439 7.98963 14.1017C7.42067 13.9336 6.79956 13.75 4.99999 13.75C2.93357 13.75 1.25 15.4335 1.25 17.5Z" fill="#707DA3"/>
</svg>
