<svg width="99" height="100" viewBox="0 0 99 100" fill="none" xmlns="http://www.w3.org/2000/svg">
<path d="M39.8854 60.8628L33.9141 54.8405C38.0282 50.6936 43.6279 48.3621 49.4698 48.3621C55.3116 48.3621 60.9114 50.6936 65.0255 54.8405L59.0542 60.8628H39.8854Z" fill="#ADB6CC"/>
<path d="M67.1459 99.8043H31.7932C29.4061 99.8607 27.1636 98.6637 25.8828 96.6489C24.6013 94.6341 24.4681 92.0954 25.5311 89.958L43.2074 60.5461C44.4394 58.2313 46.8479 56.7845 49.4696 56.7845C52.0913 56.7845 54.4997 58.2313 55.7318 60.5461L73.4081 89.958C74.4711 92.0954 74.3379 94.6341 73.0563 96.6489C71.7756 98.6637 69.5331 99.8607 67.1459 99.8043Z" fill="#FD7A5C"/>
<path d="M8.48127 29.2009C19.319 18.2665 34.076 12.1155 49.471 12.1155C64.866 12.1155 79.623 18.2665 90.4607 29.2009L98.941 20.6536C85.8715 7.4371 68.0581 0 49.471 0C30.884 0 13.0698 7.4371 0.000976562 20.6536L8.48127 29.2009Z" fill="#324376"/>
<path d="M73.498 46.2955C67.1452 39.8856 58.4944 36.2794 49.4696 36.2794C40.4449 36.2794 31.794 39.8856 25.4412 46.2955L16.9609 37.7482C25.5562 29.076 37.2597 24.1974 49.4696 24.1974C61.6795 24.1974 73.383 29.076 81.9783 37.7482L73.498 46.2955Z" fill="#77829E"/>
<path d="M49.4699 86.038C48.5196 86.038 47.749 85.2675 47.749 84.3172V68.8307C47.749 67.8805 48.5196 67.1099 49.4699 67.1099C50.4202 67.1099 51.1908 67.8805 51.1908 68.8307V84.3172C51.1908 85.2675 50.4202 86.038 49.4699 86.038Z" fill="#FCFCFD"/>
<path d="M51.1908 91.2006C51.1908 92.1509 50.4202 92.9215 49.4699 92.9215C48.5196 92.9215 47.749 92.1509 47.749 91.2006C47.749 90.2503 48.5196 89.4797 49.4699 89.4797C50.4202 89.4797 51.1908 90.2503 51.1908 91.2006Z" fill="#FCFCFD"/>
</svg>
