<svg width="44" height="37" viewBox="0 0 44 37" fill="none" xmlns="http://www.w3.org/2000/svg">
<path d="M43.8419 17.1316H0L6.81517 33.1738V33.2448C6.81517 35.3033 13.5601 36.9359 21.7804 36.9359C30.0711 36.9359 36.816 35.3033 36.816 33.2448V33.1028L43.8419 17.1316Z" fill="#FCF7C5"/>
<path d="M21.9912 36.8649C30.2818 36.8649 36.8862 35.2323 36.8862 33.2448C36.8862 33.2448 36.816 33.1738 36.816 33.1028L43.9824 17.1316H0.140503" fill="#EFE5AB"/>
<path d="M21.9912 22.5265C34.1366 22.5265 43.9824 20.1112 43.9824 17.1318C43.9824 14.1524 34.1366 11.7371 21.9912 11.7371C9.8458 11.7371 0 14.1524 0 17.1318C0 20.1112 9.8458 22.5265 21.9912 22.5265Z" fill="#E2D998"/>
<path d="M21.9912 11.7371C34.1461 11.7371 43.9824 14.1505 43.9824 17.1318C43.9824 20.1131 34.1461 22.5265 21.9912 22.5265" fill="#C6B96D"/>
<path d="M21.9912 14.6472C11.9441 14.6472 3.79401 16.6347 3.79401 19.0482C3.79401 19.5451 4.07504 19.971 4.63712 20.3969C8.64191 21.6746 14.895 22.4554 21.9912 22.4554C29.0874 22.4554 35.2703 21.6746 39.3453 20.3969C39.9074 19.971 40.1884 19.5451 40.1884 19.0482C40.1884 16.6347 32.0383 14.6472 21.9912 14.6472Z" fill="#F47400"/>
<path d="M21.9912 22.4554C29.0172 22.4554 35.2703 21.6746 39.3453 20.3969C39.9074 19.971 40.1884 19.5451 40.1884 19.0482C40.1884 16.5638 32.0383 14.6472 21.9912 14.6472" fill="#F25600"/>
<path d="M29.2982 19.1902C32.0145 19.1902 34.2164 18.7452 34.2164 18.1964C34.2164 17.6476 32.0145 17.2026 29.2982 17.2026C26.582 17.2026 24.3801 17.6476 24.3801 18.1964C24.3801 18.7452 26.582 19.1902 29.2982 19.1902Z" fill="#FF8B00"/>
<path d="M18.8998 34.8776L15.9489 29.9088L18.8998 24.9399H24.7313L27.6822 29.9088L24.7313 34.8776H18.8998Z" fill="#5EA304"/>
<path d="M19.1106 24.9399H24.7314L27.6823 29.9088L24.7314 34.8776" fill="#357503"/>
<path d="M30.9142 17.8415C31.3357 16.4218 31.7573 15.0022 32.2491 13.4405C35.1297 4.56762 38.0104 1.08945 35.1297 0.166665C32.2491 -0.756117 32.5301 3.64484 29.6495 12.5177C29.0172 14.4343 28.3848 16.3508 27.7525 17.7705H30.9142V17.8415Z" fill="#00233F"/>
<path d="M33.0606 2.36164C32.7251 3.36433 32.7808 4.28915 33.1852 4.42728C33.5895 4.5654 34.1893 3.86452 34.5249 2.86183C34.8605 1.85913 34.8047 0.93431 34.4004 0.796187C33.996 0.658063 33.3962 1.35894 33.0606 2.36164Z" fill="#262E87"/>
<path d="M12.0144 15.3572C8.92295 15.8541 6.53413 16.5639 5.12894 17.4157L3.86427 18.6934C3.79401 18.8354 3.79401 18.9773 3.79401 19.1193C3.79401 19.6162 4.07504 20.0421 4.63712 20.468C8.07983 21.5327 13.1385 22.3135 18.9701 22.4555L12.0144 15.3572Z" fill="#F25600"/>
<path d="M10.2579 19.9709C12.5765 19.9709 14.7545 17.3446 14.8248 15.0731C14.895 11.098 11.3821 9.82034 9.97687 6.48413" fill="#357503"/>
<path d="M10.4686 19.616V19.687L10.3984 19.758C7.9393 18.3383 5.90178 16.9896 5.691 14.7182C5.26944 10.7431 8.57164 9.74936 9.97683 6.48413" fill="#5EA304"/>
<path d="M10.3984 19.829C11.101 17.6995 11.5928 15.4281 10.1876 13.9374C7.72852 11.311 4.91814 13.0856 1.82672 11.8789" fill="#357503"/>
<path d="M10.3984 19.829C7.86904 20.5388 5.691 21.0357 4.07503 19.687C1.26465 17.3446 3.0914 14.7182 1.75647 11.8079" fill="#5EA304"/>
<path d="M21.6356 15.6544C21.6243 15.3802 20.2637 15.215 18.5967 15.2852C16.9297 15.3555 15.5876 15.6348 15.5989 15.909C15.6102 16.1831 16.9708 16.3484 18.6378 16.2781C20.3047 16.2078 21.6469 15.9286 21.6356 15.6544Z" fill="#FFA300"/>
</svg>
